<?xml version="1.0" standalone="no"?>
<!DOCTYPE svg PUBLIC "-//W3C//DTD SVG 1.1//EN" "http://www.w3.org/Graphics/SVG/1.1/DTD/svg11.dtd" >
<svg xmlns="http://www.w3.org/2000/svg">
<metadata></metadata>
<defs>
<font id="icomoonregular" horiz-adv-x="512" >
<font-face units-per-em="512" ascent="480" descent="-32" />
<missing-glyph horiz-adv-x="256" />
<glyph horiz-adv-x="0" d="M0 0v0v0v0z" />
<glyph horiz-adv-x="0" d="M0 0v0v0v0z" />
<glyph horiz-adv-x="0" d="M0 0v0v0v0z" />
<glyph unicode=" " horiz-adv-x="256" d="M0 0v0v0v0z" />
<glyph unicode="&#xe000;" horiz-adv-x="500" d="M0 0v0v0v0v0z" />
<glyph unicode="&#xe02f;" d="M416 192q-12 0 -24 -5t-24 -11t-24 -11t-24 -5t-19.5 20l-16.5 44t-22.5 44t-37.5 20t-47.5 -12t-44.5 -36t-38.5 -60t-29.5 -84h180h204l-4 48t-28 48v0zM0 384v-352h512v352h-512v0zM480 64h-448v288h448v-288v0zM352 272q0 10 4 18.5t10 15.5q7 6 15.5 10t18.5 4 t18.5 -4t15.5 -10q6 -7 10 -15.5t4 -18.5t-4 -18.5t-10 -15.5q-7 -6 -15.5 -10t-18.5 -4t-18.5 4t-15.5 10q-6 7 -10 15.5t-4 18.5v0z" />
<glyph unicode="&#xe030;" d="M0 384v-320h512v320h-512v0zM480 160l-96 96l-46 -69l91 -91h-45l-160 160l-192 -160v256h448v-192v0zM64 272q0 10 4 18.5t10 15.5q7 6 15.5 10t18.5 4t18.5 -4t15.5 -10q6 -7 10 -15.5t4 -18.5t-4 -18.5t-10 -15.5q-7 -6 -15.5 -10t-18.5 -4t-18.5 4t-15.5 10 q-6 7 -10 15.5t-4 18.5v0z" />
<glyph unicode="&#xe031;" d="M0 448v-480h512v480h-512v0zM448 96h-384v288h384v-288v0zM416 192l-32 64l-64 -64l-96 160l-128 -192v-32h320v64z" />
<glyph unicode="&#xe032;" d="M384 448h-384v-384h384v384v0zM352 160h-320v256h320v-256v0zM256 320l-23 -46l-73 110l-96 -192h256zM416 357v-325h-356l-2 -24l382 -40l40 382z" />
<glyph unicode="&#xe033;" d="M0 448v-448h512v448h-512v0zM480 416v-325l-126 147q-3 4 -7 7t-8 5q-5 2 -9.5 3t-9.5 1t-9.5 -1t-9.5 -3q-4 -2 -8 -5t-7 -7l-149 -174h-93l72 91q3 3 6 4.5t6 1.5t6 -1.5t6 -4.5l15 -20l19 22l-13 16q-3 4 -6.5 7t-8.5 5q-4 2 -8.5 3t-9.5 1t-9.5 -1t-8.5 -3 q-5 -2 -8.5 -5t-6.5 -7l-63 -79v322h448v0zM466 64h-292l133 156q3 3 6 4.5t7 1.5t7 -1.5t6 -4.5l133 -156v0zM144 356q11 0 20.5 -4t16.5 -11t11 -16.5t4 -20.5t-4 -20.5t-11 -16.5t-16.5 -11t-20.5 -4t-20.5 4t-16.5 11t-11 16.5t-4 20.5t4 20.5t11 16.5t16.5 11t20.5 4v0 zM144 384q-17 0 -31.5 -6.5t-25.5 -16.5q-10 -11 -16.5 -25.5t-6.5 -31.5t6.5 -31.5t16.5 -25.5q11 -10 25.5 -16.5t31.5 -6.5t31.5 6.5t25.5 16.5q10 11 16.5 25.5t6.5 31.5t-6.5 31.5t-16.5 25.5q-11 10 -25.5 16.5t-31.5 6.5v0v0z" />
<glyph unicode="&#xe034;" d="M256 264q18 0 33.5 -7t26.5 -19q12 -12 18.5 -28t6.5 -34t-6.5 -34t-18.5 -28q-11 -12 -26.5 -19t-33.5 -7t-33.5 7t-26.5 19q-12 12 -18.5 28t-6.5 34t6.5 34t18.5 28q11 12 26.5 19t33.5 7v0zM480 384h-96l-16 41q-1 5 -4 9t-7 7t-9 5t-10 2h-164q-5 0 -10 -2t-9 -5 t-7 -7t-4 -9l-16 -41h-96q-7 0 -12.5 -2.5t-10.5 -6.5q-4 -5 -6.5 -10.5t-2.5 -12.5v-352q0 -7 2.5 -12.5t6.5 -10.5q5 -4 10.5 -6.5t12.5 -2.5h448q7 0 12.5 2.5t10.5 6.5q4 5 6.5 10.5t2.5 12.5v352q0 7 -2.5 12.5t-6.5 10.5q-5 4 -10.5 6.5t-12.5 2.5v0zM256 40 q-28 0 -52 10.5t-42 29.5q-18 18 -28.5 43t-10.5 53t10.5 53t28.5 43q18 19 42 29.5t52 10.5t52 -10.5t42 -29.5q18 -18 28.5 -43t10.5 -53t-10.5 -53t-28.5 -43q-18 -19 -42 -29.5t-52 -10.5v0z" />
<glyph unicode="&#xe035;" d="M480 384h-96l-16 41q-1 5 -4 9t-7 7t-9 5t-10 2h-164q-5 0 -10 -2t-9 -5t-7 -7t-4 -9l-16 -41h-96q-7 0 -12.5 -2.5t-10.5 -6.5q-4 -5 -6.5 -10.5t-2.5 -12.5v-352q0 -7 2.5 -12.5t6.5 -10.5q5 -4 10.5 -6.5t12.5 -2.5h448q7 0 12.5 2.5t10.5 6.5q4 5 6.5 10.5t2.5 12.5 v352q0 7 -2.5 12.5t-6.5 10.5q-5 4 -10.5 6.5t-12.5 2.5v0zM448 32h-384v288h107l26 64h118l26 -64h107v-288v0zM256 296q-25 0 -47 -9.5t-38 -25.5t-25.5 -38t-9.5 -47t9.5 -47t25.5 -38t38 -25.5t47 -9.5t47 9.5t38 25.5t25.5 38t9.5 47t-9.5 47t-25.5 38t-38 25.5 t-47 9.5v0zM256 104q-15 0 -28 5.5t-23 15.5t-15.5 23t-5.5 28t5.5 28t15.5 23t23 15.5t28 5.5t28 -5.5t23 -15.5t15.5 -23t5.5 -28t-5.5 -28t-15.5 -23t-23 -15.5t-28 -5.5v0z" />
<glyph unicode="&#xe060;" d="M64 288h-64v-160h64v32l64 -18v-0.5v-0.5v-45q0 -7 2.5 -12.5t6.5 -10.5q5 -4 10.5 -6.5t12.5 -2.5h64q7 0 12.5 2.5t10.5 6.5q4 5 6.5 10.5t2.5 12.5v9l160 -46v298l-352 -101v32v0zM160 133l64 -19v-18h-64v37v0zM448 366v-316l64 -18v352z" />
<glyph unicode="&#xe06f;" d="M229 312l-229 -280q0 -12 5.5 -23.5t14.5 -20.5t20.5 -14.5t23.5 -5.5l280 229q-21 5 -39.5 16t-33.5 26t-26 33.5t-16 39.5v0zM291 440q-8 -8 -14.5 -18t-11.5 -22q-4 -11 -6.5 -23t-2.5 -25q0 -27 10 -50t27 -41q18 -17 41 -27t50 -10q13 0 25 2.5t23 6.5q12 5 22 11.5 t18 14.5q-34 7 -64.5 23t-53.5 40q-24 23 -40 53.5t-23 64.5v0zM416 416h32v-32h-32v32zM384 480q-9 0 -17 -1t-16 -3q-8 -3 -15.5 -6t-14.5 -7q3 -34 17.5 -64.5t37.5 -54.5q24 -23 54.5 -37.5t64.5 -17.5q4 7 7 14.5t6 15.5q2 8 3 16t1 17q0 27 -10 50t-27 41 q-18 17 -41 27t-50 10v0zM480 384h-32v-32h32v-32h-32v32h-32v32h-32v32h-32v32h32v-32h32v32h32v-32h32v-32v0z" />
<glyph unicode="&#xe073;" d="M176 400q0 17 6.5 31.5t16.5 25.5q11 10 25.5 16.5t31.5 6.5t31.5 -6.5t25.5 -16.5q10 -11 16.5 -25.5t6.5 -31.5t-6.5 -31.5t-16.5 -25.5q-11 -10 -25.5 -16.5t-31.5 -6.5t-31.5 6.5t-25.5 16.5q-10 11 -16.5 25.5t-6.5 31.5v0zM505 116l-128 160q-5 6 -11.5 9t-13.5 3 v0h-192q-7 0 -13.5 -3t-11.5 -9l-128 -160q-3 -4 -5 -8.5t-2 -9.5t1 -9.5t4 -9.5q2 -3 5 -6t6 -5q4 -2 8 -3t8 -1h3.5t2.5 1l90 18v-115h256v115l90 -18q1 -1 2.5 -1h3.5q4 0 8 1t8 3q3 2 6 5t5 6q3 5 4 9.5t1 9.5t-2 9.5t-5 8.5v0zM352 154l-26 5q-6 2 -12.5 0.5 t-11.5 -4.5q-5 -4 -8.5 -9t-4.5 -12q-2 -6 -0.5 -12.5t4.5 -11.5q4 -5 9 -8.5t12 -4.5l38 -8v-25l-96 -32l-96 32v25l38 8q7 1 12 4.5t9 8.5q3 5 4.5 11.5t-0.5 12.5q-1 7 -4.5 12t-8.5 9q-5 3 -11.5 4.5t-12.5 -0.5l-26 -5v70l96 -32l96 32v-70v0z" />
<glyph unicode="&#xe0bd;" d="M0 384h64v-320h-64v320zM96 384h32v-320h-32v320zM160 384h32v-320h-32v320zM256 384h32v-320h-32v320zM384 384h32v-320h-32v320zM480 384h32v-320h-32v320zM320 384h16v-320h-16v320zM224 384h16v-320h-16v320zM432 384h16v-320h-16v320z" />
<glyph unicode="&#xe0fa;" d="M384 400l-256 64l-128 -80v-416l128 80l256 -64l128 80v416l-128 -80v0zM352 25l-192 48v350l192 -48v-350v0z" />
<glyph unicode="&#xe135;" d="M256 272q-10 0 -18.5 -4t-15.5 -10q-6 -7 -10 -15.5t-4 -18.5t4 -18.5t10 -15.5q7 -6 15.5 -10t18.5 -4t18.5 4t15.5 10q6 7 10 15.5t4 18.5t-4 18.5t-10 15.5q-7 6 -15.5 10t-18.5 4v0zM256 480q-53 0 -99.5 -20t-81.5 -55t-55 -81.5t-20 -99.5t20 -99.5t55 -81.5 t81.5 -55t99.5 -20t99.5 20t81.5 55t55 81.5t20 99.5t-20 99.5t-55 81.5t-81.5 55t-99.5 20v0zM439 356q-1 2 -2.5 4t-2.5 4q1 -2 2.5 -4t2.5 -4v0zM427 372l-2 2l-2 2l2 -2l2 -2v0zM423 376l-2 2t-1 2q0 -1 1 -2l2 -2v0zM101 60l2 -2l2 -2l-2 2l-2 2v0zM105 56l2 -2l2 -2 l-2 2l-2 2v0zM136 32q-1 1 -2.5 2t-2.5 2h7l-2 -4v0zM142 44h-23q0 -1 2 -2t2 -2q-2 3 -7 6t-7 6h37l-2 -8h-2zM128 36q1 1 -2 2t-1 2q-2 -1 1 -2t2 -2v0zM153 60h-55q0 1 -2 2t-1 2q-4 2 -4.5 4t-4.5 4q3 -1 3 -2t2 -2h64l-2 -8v0zM81 76q4 -1 3.5 -2t3.5 -2q-4 1 -3.5 2 t-3.5 2v0zM162 76h-81q-1 4 -5 8t-5 8q-1 -2 1.5 -4t2.5 -4h91l-6 -8h2zM170 92h-101q-3 3 -5 6l-4 6q1 -1 1.5 -2t1.5 -2h111l-4 -8v0zM178 108h-112l11 8h107l-6 -8v0zM188 124h-98l13 8h89l-4 -8v0zM417 329l6 3h-106l-4 -8h96l-12 -8h-90l-4 -8h80l-11 -8h-73q4 -2 6 -4 t5 -4h48l-12 -8h-29q3 -2 4 -4t4 -4h7l-5 -4q2 -5 5.5 -10.5t3.5 -11.5q3 -7 3.5 -13t1.5 -13q-1 -19 -7.5 -35.5t-20.5 -28.5q-11 -13 -28 -20t-35 -7q-8 0 -13.5 1t-13.5 3q-5 1 -11 4t-10 6l-5 -7h-81l11 8h73q-4 2 -6 4t-5 4h-48l31 20q-2 5 -5.5 10.5t-3.5 11.5 q-3 7 -3.5 13t-1.5 13q1 19 7.5 35.5t20.5 28.5q11 13 28 20t35 7q8 0 13.5 -1t13.5 -3q5 -1 11 -4t10 -6l73 115q2 -2 5 -4t5 -4q0 1 -2 2t-3 2h-8l-4 -8h23q-1 1 -2.5 2t-2.5 2q3 -3 7.5 -6t7.5 -6h-38l-6 -8h53q-2 1 -2.5 2t-2.5 2q3 -2 5 -4t5 -4q0 -1 1.5 -2t1.5 -2 h-65l-6 -8h79q0 -2 2.5 -4t2.5 -4h-88l-6 -8h101q2 -3 4.5 -6t3.5 -6l-23 -15h-1zM396 396q2 -1 2.5 -2t2.5 -2q-2 1 -2.5 2t-2.5 2v0zM328 348l-6 -8h114l5 4q0 1 -1 2t-1 2h-112h1zM167 172l-14 -8h29q-3 2 -4 4t-4 4h-7v0z" />
<glyph unicode="&#xe160;" d="M464 480q10 0 18.5 -4t15.5 -10q6 -7 10 -15.5t4 -18.5v-320q0 -10 -4 -18.5t-10 -15.5q-7 -6 -15.5 -10t-18.5 -4h-142l-82 -96l-82 96h-110q-10 0 -18.5 4t-15.5 10q-6 7 -10 15.5t-4 18.5v320q0 10 4 18.5t10 15.5q7 6 15.5 10t18.5 4h416v0z" />
<glyph unicode="&#xe161;" d="M464 384q10 0 18.5 -4t15.5 -10q6 -7 10 -15.5t4 -18.5v-224q0 -10 -4 -18.5t-10 -15.5q-7 -6 -15.5 -10t-18.5 -4h-78l-82 -96l-82 96h-78q-10 0 -18.5 4t-15.5 10q-6 7 -10 15.5t-4 18.5v224q0 10 4 18.5t10 15.5q7 6 15.5 10t18.5 4h320v0zM64 416v-256h-16 q-10 0 -18.5 4t-15.5 10q-6 7 -10 15.5t-4 18.5v224q0 10 4 18.5t10 15.5q7 6 15.5 10t18.5 4h320q10 0 18.5 -4t15.5 -10q6 -7 10 -15.5t4 -18.5v-16h-352v0z" />
<glyph unicode="&#xe162;" d="M464 480h-416q-10 0 -18.5 -4t-15.5 -10q-6 -7 -10 -15.5t-4 -18.5v-320q0 -10 4 -18.5t10 -15.5q7 -6 15.5 -10t18.5 -4h110l82 -96l82 96h142q10 0 18.5 4t15.5 10q6 7 10 15.5t4 18.5v320q0 10 -4 18.5t-10 15.5q-7 6 -15.5 10t-18.5 4v0zM448 128h-139l-69 -78 l-69 78h-107v288h384v-288v0z" />
<glyph unicode="&#xe163;" d="M464 384h-320q-10 0 -18.5 -4t-15.5 -10q-6 -7 -10 -15.5t-4 -18.5v-224q0 -10 4 -18.5t10 -15.5q7 -6 15.5 -10t18.5 -4h78l82 -96l82 96h78q10 0 18.5 4t15.5 10q6 7 10 15.5t4 18.5v224q0 10 -4 18.5t-10 15.5q-7 6 -15.5 10t-18.5 4v0zM448 128h-75l-69 -78l-69 78 h-75v192h288v-192v0zM64 416v-256h-16q-10 0 -18.5 4t-15.5 10q-6 7 -10 15.5t-4 18.5v224q0 10 4 18.5t10 15.5q7 6 15.5 10t18.5 4h320q10 0 18.5 -4t15.5 -10q6 -7 10 -15.5t4 -18.5v-16h-352v0z" />
<glyph unicode="&#xe164;" d="M464 448q10 0 18.5 -4t15.5 -10q6 -7 10 -15.5t4 -18.5v-256q0 -10 -4 -18.5t-10 -15.5q-7 -6 -15.5 -10t-18.5 -4h-182l-154 -128v128h-80q-10 0 -18.5 4t-15.5 10q-6 7 -10 15.5t-4 18.5v256q0 10 4 18.5t10 15.5q7 6 15.5 10t18.5 4h416v0z" />
<glyph unicode="&#xe165;" d="M464 448h-416q-10 0 -18.5 -4t-15.5 -10q-6 -7 -10 -15.5t-4 -18.5v-256q0 -10 4 -18.5t10 -15.5q7 -6 15.5 -10t18.5 -4h80v-128l154 128h182q10 0 18.5 4t15.5 10q6 7 10 15.5t4 18.5v256q0 10 -4 18.5t-10 15.5q-7 6 -15.5 10t-18.5 4v0zM192 224h-64v64h64v-64v0z M288 224h-64v64h64v-64v0zM384 224h-64v64h64v-64v0z" />
<glyph unicode="&#xe166;" d="M464 448h-416q-10 0 -18.5 -4t-15.5 -10q-6 -7 -10 -15.5t-4 -18.5v-256q0 -10 4 -18.5t10 -15.5q7 -6 15.5 -10t18.5 -4h80v-128l154 128h182q10 0 18.5 4t15.5 10q6 7 10 15.5t4 18.5v256q0 10 -4 18.5t-10 15.5q-7 6 -15.5 10t-18.5 4v0zM224 192h-128v32h128v-32v0z M352 256h-256v32h256v-32v0zM416 320h-320v32h320v-32v0z" />
<glyph unicode="&#xe167;" d="M464 448h-416q-10 0 -18.5 -4t-15.5 -10q-6 -7 -10 -15.5t-4 -18.5v-256q0 -10 4 -18.5t10 -15.5q7 -6 15.5 -10t18.5 -4h80v-128l154 128h182q10 0 18.5 4t15.5 10q6 7 10 15.5t4 18.5v256q0 10 -4 18.5t-10 15.5q-7 6 -15.5 10t-18.5 4v0zM448 160h-190l-98 -87v87h-96 v224h384v-224v0z" />
<glyph unicode="&#xe168;" d="M128 288h64v-64h-64v64zM224 288h64v-64h-64v64zM320 288h64v-64h-64v64zM464 448h-416q-10 0 -18.5 -4t-15.5 -10q-6 -7 -10 -15.5t-4 -18.5v-256q0 -10 4 -18.5t10 -15.5q7 -6 15.5 -10t18.5 -4h80v-128l154 128h182q10 0 18.5 4t15.5 10q6 7 10 15.5t4 18.5v256 q0 10 -4 18.5t-10 15.5q-7 6 -15.5 10t-18.5 4v0zM448 160h-190l-98 -87v87h-96v224h384v-224v0z" />
<glyph unicode="&#xe169;" d="M96 352h320v-32h-320v32zM96 288h256v-32h-256v32zM96 224h128v-32h-128v32zM464 448h-416q-10 0 -18.5 -4t-15.5 -10q-6 -7 -10 -15.5t-4 -18.5v-256q0 -10 4 -18.5t10 -15.5q7 -6 15.5 -10t18.5 -4h80v-128l154 128h182q10 0 18.5 4t15.5 10q6 7 10 15.5t4 18.5v256 q0 10 -4 18.5t-10 15.5q-7 6 -15.5 10t-18.5 4v0zM448 160h-190l-98 -87v87h-96v224h384v-224v0z" />
<glyph unicode="&#xe16a;" horiz-adv-x="576" d="M400 480h-352q-10 0 -18.5 -4t-15.5 -10q-6 -7 -10 -15.5t-4 -18.5v-160q0 -10 4 -18.5t10 -15.5q7 -6 15.5 -10t18.5 -4h16v-128l154 128h182q10 0 18.5 4t15.5 10q6 7 10 15.5t4 18.5v160q0 10 -4 18.5t-10 15.5q-7 6 -15.5 10t-18.5 4v0zM384 288h-190l-98 -87v87h-32 v128h320v-128v0zM528 384q10 0 18.5 -4t15.5 -10q6 -7 10 -15.5t4 -18.5v-192q0 -10 -4 -18.5t-10 -15.5q-7 -6 -15.5 -10t-18.5 -4h-80v-128l-154 128h-102v64h126l98 -87v87h96v160h-32v64h48v0z" />
<glyph unicode="&#xe16b;" horiz-adv-x="576" d="M400 480q10 0 18.5 -4t15.5 -10q6 -7 10 -15.5t4 -18.5v-160q0 -10 -4 -18.5t-10 -15.5q-7 -6 -15.5 -10t-18.5 -4h-182l-154 -128v128h-16q-10 0 -18.5 4t-15.5 10q-6 7 -10 15.5t-4 18.5v160q0 10 4 18.5t10 15.5q7 6 15.5 10t18.5 4h352v0zM528 384q10 0 18.5 -4 t15.5 -10q6 -7 10 -15.5t4 -18.5v-192q0 -10 -4 -18.5t-10 -15.5q-7 -6 -15.5 -10t-18.5 -4h-80v-128l-154 128h-102v64h126l98 -87v87h96v160h-32v64h48v0z" />
<glyph unicode="&#xe16d;" d="M464 480h-416q-10 0 -18.5 -4t-15.5 -10q-6 -7 -10 -15.5t-4 -18.5v-288q0 -10 4 -18.5t10 -15.5q7 -6 15.5 -10t18.5 -4h80v-128l154 128h182q10 0 18.5 4t15.5 10q6 7 10 15.5t4 18.5v288q0 10 -4 18.5t-10 15.5q-7 6 -15.5 10t-18.5 4v0zM224 345q-11 -3 -21.5 -8 t-19.5 -13q-9 -7 -16.5 -16t-12.5 -20h2.5h3.5q13 0 25 -5t20 -14q9 -8 14 -20t5 -25t-5 -25t-14 -20q-8 -9 -20 -14t-25 -5t-25 5t-20 14q-9 8 -14 20t-5 25q0 16 3 32t8 31q5 14 13 27.5t19 25.5q9 10 18.5 18t20.5 14t22.5 10t23.5 5v-42v0zM416 345q-11 -3 -21.5 -8 t-19.5 -13q-9 -7 -16.5 -16t-12.5 -20h2.5h3.5q13 0 25 -5t20 -14q9 -8 14 -20t5 -25t-5 -25t-14 -20q-8 -9 -20 -14t-25 -5t-25 5t-20 14q-9 8 -14 20t-5 25q0 16 3 32t8 31q5 14 13 27.5t19 25.5q9 10 18.5 18t20.5 14t22.5 10t23.5 5v-42v0z" />
<glyph unicode="&#xe16e;" d="M464 480h-416q-10 0 -18.5 -4t-15.5 -10q-6 -7 -10 -15.5t-4 -18.5v-288q0 -10 4 -18.5t10 -15.5q7 -6 15.5 -10t18.5 -4h80v-128l154 128h182q10 0 18.5 4t15.5 10q6 7 10 15.5t4 18.5v288q0 10 -4 18.5t-10 15.5q-7 6 -15.5 10t-18.5 4v0zM256 416q13 0 24.5 -5 t20.5 -14t14 -20.5t5 -24.5t-5 -24.5t-14 -20.5t-20.5 -14t-24.5 -5t-24.5 5t-20.5 14t-14 20.5t-5 24.5t5 24.5t14 20.5t20.5 14t24.5 5v0zM352 160h-192v32q0 13 5 25t14 20q8 9 20 14t25 5v0h64q13 0 25 -5t20 -14q9 -8 14 -20t5 -25v-32v0z" />
<glyph unicode="&#xe174;" d="M464 480h-416q-10 0 -18.5 -4t-15.5 -10q-6 -7 -10 -15.5t-4 -18.5v-288q0 -10 4 -18.5t10 -15.5q7 -6 15.5 -10t18.5 -4h80v-128l154 128h182q10 0 18.5 4t15.5 10q6 7 10 15.5t4 18.5v288q0 10 -4 18.5t-10 15.5q-7 6 -15.5 10t-18.5 4v0zM256 192l-64 39.5t-64 92.5 v1.5v1.5v0v0v1.5v0.5q1 12 6.5 22t14.5 17q8 8 19 12t24 4t25 -6.5t20 -17.5q9 -10 14 -23t5 -25q0 12 5 25t14 23q8 11 20 17.5t25 6.5t24 -4t19 -12q9 -7 14.5 -17t6.5 -22v-0.5v-1.5v0v0v-1.5v-1.5q0 -53 -64 -92.5l-64 -39.5v0z" />
<glyph unicode="&#xe18d;" d="M153 188q0 -2 -0.5 -4t-1.5 -4h49q0 2 -0.5 4t-0.5 4h-46v0zM9 92l-2 -4l-2 -4h195q4 2 8.5 4t8.5 4h-208v0zM41 124q-2 -2 -4.5 -4t-5.5 -4h203l-2 4l-2 4h-189v0zM138 172q-5 -1 -11 -3t-13 -5h93l-2 4l-2 4h-65v0zM65 140l-6 -4t-7 -4h174q-1 2 -1.5 4t-1.5 4h-158v0z M2 76q-1 -2 -1.5 -4t-0.5 -4h171h0.5t0.5 1q3 1 6 3t7 4h-183v0zM15 100h221q2 1 3.5 1.5t3.5 0.5q-1 2 -2 3.5t-2 2.5h-216l-4 -4l-4 -4v0zM124 404h136l-4 4l-4 4h-120l-4 -4l-4 -4v0zM108 356h155q3 1 6 2.5t6 2.5v1.5v1.5h-166v-4t-1 -4v0zM80 148h139q-2 2 -3.5 4 t-3.5 4h-116l-8 -4l-8 -4v0zM134 228h70q0 1 0.5 1.5t0.5 1.5v2.5v2.5h-75l2 -4l2 -4v0zM112 268q2 -2 4 -2.5t4 -0.5q0 -1 0.5 -2.5t0.5 -2.5h83q0 2 0.5 4t0.5 4h-93v0zM109 332v-4t1 -4h114q2 2 3.5 4t3.5 4h-122v0zM108 348v-4v-4h130q3 2 5.5 4t5.5 4h-141v0zM112 380 q0 -2 -0.5 -4t-1.5 -4h164q-1 2 -1.5 4t-0.5 4h-160v0zM119 396l-2 -4l-2 -4h154l-2 4l-2 4h-146v0zM198 204h-47l2.5 -2.5l0.5 -0.5v-1.5v-3.5h44v4v4v0zM163 428q-6 -1 -11 -3t-9 -5h98q-4 3 -9 5t-11 3h-58v0zM139 220q1 -2 2.5 -4t2.5 -4h55q0 2 0.5 4t1.5 4h-62v0z M204 252h-81q1 -2 1.5 -4t1.5 -4h78v4v4v0zM103 284l2 -4t1 -4h100q0 2 0.5 4t0.5 4h-104v0zM109 316q-2 -2 -3 -4l-2 -4h111l2 4l2 4h-110v0zM102 300v-4v-4h107q1 2 1.5 4t1.5 4h-110v0zM367 77q-7 1 -8 14.5l-1 13.5l14.5 18t19.5 46q6 0 10.5 6t6.5 15t0.5 17.5 t-7.5 14.5q0 5 1.5 23.5t-3.5 38.5q-6 20 -23.5 35.5t-56.5 15.5t-56.5 -15.5t-23.5 -35.5q-5 -20 -3.5 -38.5t1.5 -23.5q-6 -6 -7.5 -14.5t0.5 -17.5t6.5 -15t10.5 -6q5 -28 19.5 -46l14.5 -18l-1 -13.5t-8 -14.5q-12 -1 -36 -11t-48 -25t-42.5 -34t-18.5 -39h384 q0 20 -18.5 39t-42.5 34t-48 25t-36 11v0z" />
<glyph unicode="&#xe19c;" d="M448 384h-384q-13 0 -25 -5t-20 -14q-9 -8 -14 -20t-5 -25v-224q0 -13 5 -24.5t14 -20.5q8 -9 20 -14t24 -5h385q12 0 24 5t20 14q9 9 14 20.5t5 24.5v224q0 13 -5 24.5t-14 20.5q-8 8 -20 13.5t-25 4.5zM63 96q0 26 6.5 49.5t16.5 40.5q11 18 25.5 27.5t31.5 10.5 q-10 -1 -18.5 3.5t-15.5 9.5q-6 8 -10 16t-4 19q0 9 4 18t10 15q7 7 15.5 10.5t18.5 4.5q10 -1 18.5 -4.5t15.5 -10.5q6 -6 10 -15t4 -18q0 -11 -4 -19t-10 -16q-7 -5 -15.5 -9.5t-18.5 -3.5q-10 -1 1.5 -10.5t28.5 -27.5q18 -17 34 -40.5t16 -49.5l-160 -1v1zM447 96 l-160 -1v33l160 -1v-31v0zM447 191l-160 1v31l160 1v-33v0zM447 288l-160 -1v33l160 -1v-31v0z" />
<glyph unicode="&#xe1a0;" d="M400 160q-23 0 -43.5 9t-35.5 24t-24 35.5t-9 43.5t9 43.5t24 35.5t35.5 24t43.5 9t43.5 -9t35.5 -24t24 -35.5t9 -43.5v-16q0 -46 -18 -87t-48 -71q-31 -31 -71.5 -48.5t-86.5 -17.5v64q16 0 31 3t30 9q14 6 27 15t25 20q4 4 8 8.5t8 9.5q-5 0 -9.5 -0.5t-8.5 -0.5h1z M111 160q-23 0 -43.5 9t-35.5 24t-24 35.5t-9 43.5t9 43.5t24 35.5t35.5 24t43.5 9t43.5 -9t35.5 -24t24 -35.5t9 -43.5v-16q0 -46 -18 -87t-48 -71q-31 -31 -71.5 -48.5t-86.5 -17.5v64q16 0 31 3t30 9q14 6 27 15t25 20q4 4 8 8.5t8 9.5q-5 0 -9.5 -0.5t-8.5 -0.5h1z" />
<glyph unicode="&#xe1fd;" d="M224 192h286q-6 -47 -28 -88t-56 -71q-34 -31 -77.5 -48t-92.5 -17q-53 0 -99.5 20t-81.5 55t-55 81.5t-20 99.5q0 49 17 92.5t48 77.5q30 34 71 56t88 28v-286v0zM288 446v-190h190q-1 7 -2.5 14t-3.5 14t-4.5 14t-5.5 13q-4 10 -9 19.5t-11 18.5t-13 17.5t-15 15.5 q-7 8 -15.5 15t-17.5 13t-18.5 11t-19.5 9q-6 3 -13 5.5t-14 4.5t-14 3.5t-14 2.5v0zM256 480v0q53 0 99.5 -20t81.5 -55t55 -81.5t20 -99.5h-256v256v0z" />
<glyph unicode="&#xe20c;" d="M160 416l-32 -32v-64l-64 -64v-96l-64 -64v-96h352l32 32v64h-352l64 64h320l32 32v64h-352l64 64h320l32 32v64h-352z" />
<glyph unicode="&#xe211;" d="M386 320q3 2 6.5 5t6.5 5l6 6l6 6q7 6 12 13t9 14t7 15t4 15q1 9 1 17t-2 15q-2 8 -6 14.5t-9 11.5q-4 4 -9 7.5t-10 5.5q-6 2 -12 3t-13 1q-9 0 -18.5 -2t-18.5 -7q-9 -4 -18 -10t-16 -14q-13 -12 -23 -26.5t-17 -29.5q-8 -15 -13.5 -29t-9.5 -27q-3 13 -7.5 27 t-11.5 28q-6 14 -14.5 27.5t-19.5 25.5q-6 6 -13 10.5t-14 7.5t-14.5 4.5t-14.5 1.5q-6 0 -12 -1t-11 -3t-10 -5.5t-9 -7.5q-10 -9 -14 -21.5t-3 -25.5q1 -14 7 -27t17 -24q4 -4 8 -7.5t9 -6.5q4 -3 9 -6l10 -6h-109v-128h32v-224h384v224h32v128h-94v0zM337 416q5 5 11 9 t12 7t12 4.5t11 1.5q4 0 9.5 -1t9.5 -5q5 -5 6 -13t-1 -17q-2 -8 -7.5 -17.5t-13.5 -17.5t-17.5 -15t-19.5 -13t-20.5 -10.5t-19.5 -8.5h-26q4 11 9 23.5t11 24.5q7 13 15.5 25.5t18.5 22.5v0zM131 372q-6 6 -9.5 13t-4.5 15q0 3 0.5 8.5t5.5 10.5q4 4 8.5 5t8.5 1v0 q8 0 16 -3.5t14 -10.5q7 -6 12.5 -14t10.5 -18t9.5 -21.5t8.5 -24.5v-1v-1h-1h-1q-13 4 -24.5 8.5t-21.5 9.5t-18 10.5t-14 12.5v0zM448 208h-160v-208h-64v208h-160v16h160v64h64v-64h160v-16v0z" />
<glyph unicode="&#xe217;" d="M416 320q0 9 -3.5 17.5t-9.5 15.5q-6 6 -14 10t-17 5q6 7 8.5 15.5t2.5 17.5t-3.5 17t-10.5 15t-15 10.5t-17 3.5t-17.5 -2.5t-15.5 -8.5q-1 9 -5 17t-10 14q-7 6 -15.5 9.5t-17.5 3.5t-17.5 -3.5t-15.5 -9.5q-6 -6 -10 -14t-5 -17q-7 6 -15.5 8.5t-17.5 2.5t-17 -3.5 t-15 -10.5t-10.5 -15t-3.5 -17t2.5 -17.5t8.5 -15.5q-9 -1 -17 -5t-14 -10q-6 -7 -9.5 -15.5t-3.5 -17.5t3.5 -17.5t9.5 -15.5q6 -6 14 -10t17 -5q-6 -7 -8.5 -15.5t-2.5 -17.5t3.5 -17t10.5 -15q5 -5 11 -8.5t12 -4.5q7 -1 13.5 -1t12.5 2v-227l64 64l64 -64v227 q6 -2 12.5 -2t13.5 1q6 1 12 4.5t11 8.5q7 7 10.5 15t3.5 17t-2.5 17.5t-8.5 15.5q9 1 17 5t14 10q6 7 9.5 15.5t3.5 17.5v0zM256 224q-20 0 -37.5 7.5t-30.5 20.5t-20.5 30.5t-7.5 37.5t7.5 37.5t20.5 30.5t30.5 20.5t37.5 7.5t37.5 -7.5t30.5 -20.5t20.5 -30.5t7.5 -37.5 t-7.5 -37.5t-20.5 -30.5t-30.5 -20.5t-37.5 -7.5v0z" />
<glyph unicode="&#xe218;" d="M448 272q0 40 -15 75t-41 61t-61 41t-75 15t-75 -15t-61 -41t-41 -61t-15 -75q0 -23 5.5 -45t15.5 -42q9 -19 23 -36t32 -30l-76 -151l96 64l32 -64l45 113q5 -1 9.5 -1h9.5h9.5t9.5 1l45 -113l32 64l96 -64l-76 151q18 13 32 30t23 36q10 20 15.5 42t5.5 45v0zM347 181 q-10 -9 -20 -16t-22 -11q-11 -5 -23.5 -7.5t-25.5 -2.5t-25.5 2.5t-23.5 7.5q-12 4 -22 11t-20 16q-9 10 -16 20t-11 22q-5 11 -7.5 23.5t-2.5 25.5t2.5 25.5t7.5 23.5q4 12 11 22t16 20q10 9 20 16t22 11q11 5 23.5 7.5t25.5 2.5t25.5 -2.5t23.5 -7.5q12 -4 22 -11t20 -16 q9 -10 16 -20t11 -22q5 -11 7.5 -23.5t2.5 -25.5t-2.5 -25.5t-7.5 -23.5q-4 -12 -11 -22t-16 -20v0z" />
<glyph unicode="&#xe21c;" d="M128 96h256v-64h-256v64zM480 384q-7 0 -12.5 -2.5t-10.5 -6.5q-4 -5 -6.5 -10.5t-2.5 -12.5q0 -5 1.5 -9.5t3.5 -8.5l-117 -78l-12 96q6 1 11 3.5t9 7.5q4 4 6 9.5t2 11.5q0 7 -2.5 12.5t-6.5 10.5q-5 4 -10.5 6.5t-12.5 2.5t-12.5 -2.5t-10.5 -6.5q-4 -5 -6.5 -10.5 t-2.5 -12.5q0 -5 1.5 -9t3.5 -8t5.5 -7t7.5 -5l-50 -99l-50 99q4 2 7.5 5t5.5 7t3.5 8t1.5 9q0 7 -2.5 12.5t-6.5 10.5q-5 4 -10.5 6.5t-12.5 2.5t-12.5 -2.5t-10.5 -6.5q-4 -5 -6.5 -10.5t-2.5 -12.5q0 -6 2 -11.5t6 -9.5q4 -5 9 -7.5t11 -3.5l-12 -96l-117 78q2 4 3.5 8.5 t1.5 9.5q0 7 -2.5 12.5t-6.5 10.5q-5 4 -10.5 6.5t-12.5 2.5t-12.5 -2.5t-10.5 -6.5q-4 -5 -6.5 -10.5t-2.5 -12.5t2.5 -12.5t6.5 -10.5q5 -4 10.5 -6.5t12.5 -2.5q3 0 6.5 0.5t6.5 2.5l83 -195h256l83 195q3 -2 6.5 -2.5t6.5 -0.5q7 0 12.5 2.5t10.5 6.5q4 5 6.5 10.5 t2.5 12.5t-2.5 12.5t-6.5 10.5q-5 4 -10.5 6.5t-12.5 2.5v0z" />
<glyph unicode="&#xe22a;" d="M432 224h-16v4v4v2.5v3.5v0.5v1.5q0 16 -10 30t-29 26q-18 12 -43 20.5t-56 13.5q-2 4 -4 7.5t-5 7.5q-5 8 -9 15t-4 15q0 5 1.5 10t5.5 11q3 5 8.5 11.5t11.5 13.5q5 4 5 11t-5 11q-4 5 -11 5t-11 -5q-20 -19 -28 -35t-9 -29t3.5 -24t10.5 -20q-8 1 -15 1h-15h-14 t-14 -1q-2 3 -3.5 5.5t-3.5 4.5q-5 8 -9 15t-4 15q0 5 1.5 10t5.5 11q3 5 8.5 11.5t11.5 13.5q5 4 5 11t-5 11q-4 5 -11 5t-11 -5q-21 -20 -29 -36.5t-8 -30.5q0 -13 5 -24t11 -21q-31 -4 -57.5 -13t-45.5 -21q-20 -12 -30.5 -26.5t-10.5 -30.5v-1.5v-0.5v-3.5v-2.5 q0 -55 16.5 -103t44.5 -84t66 -56.5t81 -20.5q24 0 47 7t43 19q21 13 38.5 30.5t31.5 39.5h64q17 0 31.5 6.5t25.5 16.5q10 11 16.5 25.5t6.5 31.5t-6.5 31.5t-16.5 25.5q-11 10 -25.5 16.5t-31.5 6.5v0zM208 192q-30 0 -56 4t-46 10q-19 7 -30.5 15.5t-11.5 18.5q0 8 7 15 t19 13q13 5 30 9.5t37 7.5q-2 -7 -8.5 -15.5t-15.5 -18.5q-5 -4 -5 -11t5 -11q2 -3 5 -4t6 -1t6 1t5 4q9 8 15.5 16t10.5 16q4 7 6.5 13.5t3.5 13.5h8.5h8.5h12t11 -1q6 0 11.5 -0.5t11.5 -0.5q-3 -8 -9.5 -16.5t-15.5 -18.5q-5 -4 -5 -11t5 -11q2 -3 5 -4t6 -1t6 1t5 4 q8 7 13.5 14t9.5 13q5 7 7.5 13t4.5 11q15 -3 27 -7t21 -10q8 -5 13 -11t5 -12q0 -10 -11.5 -18.5t-30.5 -15.5q-20 -6 -46 -10t-56 -4v0zM432 96h-46q5 11 9.5 22.5t8.5 23.5q3 12 5.5 24.5t4.5 25.5h18q9 0 16.5 -4t13.5 -11q5 -7 8.5 -15.5t3.5 -17.5t-3.5 -17.5 t-8.5 -15.5q-6 -7 -13.5 -11t-16.5 -4v0z" />
<glyph unicode="&#xe22b;" d="M432 224h-16v4v4v2.5v3.5v0.5v1.5q0 20 -16.5 37.5t-44.5 30.5t-66 20.5t-81 7.5t-81 -7.5t-66 -20.5t-44.5 -30.5t-16.5 -37.5v-1.5v-0.5v-3.5v-2.5q0 -55 16.5 -103t44.5 -84t66 -56.5t81 -20.5q24 0 47 7t43 19q21 13 38.5 30.5t31.5 39.5h64q17 0 31.5 6.5t25.5 16.5 q10 11 16.5 25.5t6.5 31.5t-6.5 31.5t-16.5 25.5q-11 10 -25.5 16.5t-31.5 6.5v0zM208 192q-30 0 -56 4t-46 10q-19 7 -30.5 15.5t-11.5 18.5t11.5 18.5t30.5 15.5q20 6 46 10t56 4t56 -4t46 -10q19 -7 30.5 -15.5t11.5 -18.5t-11.5 -18.5t-30.5 -15.5q-20 -6 -46 -10 t-56 -4v0zM432 96h-46q5 11 9.5 22.5t8.5 23.5q3 12 5.5 24.5t4.5 25.5h18q9 0 16.5 -4t13.5 -11q5 -7 8.5 -15.5t3.5 -17.5t-3.5 -17.5t-8.5 -15.5q-6 -7 -13.5 -11t-16.5 -4v0z" />
<glyph unicode="&#xe22d;" d="M358 422q6 -10 12 -21l12 -22q6 -12 11.5 -24.5t11.5 -26.5q10 -26 16.5 -51t8.5 -49t0.5 -46.5t-6.5 -44.5q-3 -11 -7 -21.5t-10 -19.5t-12.5 -16.5t-14.5 -14.5q-7 -5 -15 -9t-17 -7q-8 -3 -17 -4.5t-18 -1.5q-13 0 -25.5 3t-23.5 8t-21.5 12.5t-18.5 17.5l-18 21 l-19 -12h-1h-1q-4 0 -15 2t-31 11q-9 4 -16.5 10.5t-13.5 14.5q-7 9 -11 18.5t-6 21.5q-2 6 -2 13v14l2 14t3 14q3 8 6.5 16t8.5 15q5 8 10.5 15t12.5 14q14 15 27 24.5t25 15.5q13 6 25 10.5t25 8.5q9 2 18 5t18 7t18.5 8.5t19.5 11.5q6 4 12.5 9t12.5 11l12 12t12 13v0z M359 480q-32 -52 -61 -71.5t-59 -28.5q-29 -10 -60.5 -22t-68.5 -49q-32 -33 -43.5 -69t-7.5 -68q5 -33 23 -58t44 -37q11 -5 20 -8t16 -5t13 -2.5t10 -0.5q8 0 11 1l3 1q11 -13 24 -23t28 -17q14 -6 29.5 -9.5t31.5 -3.5q23 0 45 7t41 22t33.5 37t22.5 53q14 55 6 109 t-26 101q-19 47 -41 83.5t-35 56.5v0zM48 -4q0 -1 5 -15t32 -14q18 0 52.5 23.5t73.5 68.5q40 45 78 110.5t62 149.5q-27 -66 -73 -124t-93 -101q-47 -44 -86 -70t-51 -28v0z" />
<glyph unicode="&#xe232;" d="M401 363q23 -17 36.5 -48t21.5 -66q8 -34 12.5 -65t9.5 -47l-115 -45q-4 28 -22 54t-38 52t-36.5 53.5t-17.5 59.5q-2 31 12.5 49.5t37.5 24.5q22 6 49 0.5t50 -22.5v0zM471 -26q-69 -25 -83 32l-14 57l119 49l18 -58.5t-40 -79.5v0zM1 384q5 29 19.5 52t35.5 34 q20 12 43 9t45 -26q21 -24 29 -55t12 -63t9.5 -63t23.5 -55l-113 -49q-9 15 -27.5 40t-37.5 55q-18 30 -30.5 61.5t-8.5 59.5v0zM227 60q-56 -26 -84.5 28l-28.5 54l118 50l30.5 -50.5t-35.5 -81.5v0z" />
<glyph unicode="&#xe248;" d="M256 480q-53 0 -99.5 -19t-81.5 -51q-35 -33 -55 -76.5t-20 -93.5v-4v-4q41 -9 65.5 -15t37.5 -17q14 -12 19 -33t6 -62q8 -2 25.5 -4t37.5 -4t38.5 -3.5t26.5 -1.5t26.5 1.5t38.5 3.5t37.5 4t25.5 4q1 41 6 62t19 33q13 11 37.5 17t65.5 15v4v4q0 50 -20 93.5t-55 76.5 q-35 32 -81.5 51t-99.5 19v0zM208 299q0 -9 -3.5 -17t-9.5 -13q-5 -6 -13 -9.5t-17 -3.5h-26q-9 0 -17 3.5t-13 9.5q-6 5 -9.5 13t-3.5 17v10q0 9 3.5 17t9.5 13q5 6 13 9.5t17 3.5h26q9 0 17 -3.5t13 -9.5q6 -5 9.5 -13t3.5 -17v-10v0zM276 152h-40q-8 0 -12.5 5.5 t-2.5 13.5l10 42q1 4 3.5 7.5t5.5 5.5q4 3 8 4.5t8 1.5t8 -1.5t8 -4.5q3 -2 5.5 -5.5t3.5 -7.5l10 -42q2 -8 -2.5 -13.5t-12.5 -5.5v0zM416 299q0 -9 -3.5 -17t-9.5 -13q-5 -6 -13 -9.5t-17 -3.5h-26q-9 0 -17 3.5t-13 9.5q-6 5 -9.5 13t-3.5 17v10q0 9 3.5 17t9.5 13 q5 6 13 9.5t17 3.5h26q9 0 17 -3.5t13 -9.5q6 -5 9.5 -13t3.5 -17v-10v0zM224 53v-53h64v53q-10 -1 -18.5 -1.5t-13.5 -0.5t-13.5 0.5t-18.5 1.5v0zM320 0l64 13v51q-8 -2 -26 -4t-38 -4v-56v0zM128 13l64 -13v56q-20 2 -38 4t-26 4v-51v0z" />
<glyph unicode="&#xe24b;" d="M448 288q0 40 -15 75t-41 61t-61 41t-75 15t-75 -15t-61 -41t-41 -61t-15 -75q0 -27 7 -51.5t19 -45.5q13 -22 30.5 -39.5t39.5 -29.5v-90l64 -64h64l64 64v90q22 12 39.5 29.5t30.5 39.5q12 21 19 45.5t7 51.5v0zM304 32h-96q-7 0 -11.5 4.5t-4.5 11.5t4.5 11.5 t11.5 4.5h96q7 0 11.5 -4.5t4.5 -11.5t-4.5 -11.5t-11.5 -4.5v0zM320 141v147q7 0 12.5 2.5t10.5 6.5q4 5 6.5 10.5t2.5 12.5t-2.5 12.5t-6.5 10.5q-5 4 -10.5 6.5t-12.5 2.5t-12.5 -2.5t-10.5 -6.5q-4 -5 -6.5 -10.5t-2.5 -12.5v-189l-16 -2t-16 -1t-16 1l-16 2v189 q0 7 -2.5 12.5t-6.5 10.5q-5 4 -10.5 6.5t-12.5 2.5t-12.5 -2.5t-10.5 -6.5q-4 -5 -6.5 -10.5t-2.5 -12.5t2.5 -12.5t6.5 -10.5q5 -4 10.5 -6.5t12.5 -2.5v-147q-7 3 -13.5 6.5t-12.5 8.5q-6 4 -12 8.5t-11 10.5q-11 11 -20 24t-15 28q-6 14 -9 29.5t-3 31.5t3 31.5t9 29.5 q6 15 15 28t20 24t24 20t28 15q14 6 29.5 9t31.5 3t31.5 -3t29.5 -9q15 -6 28 -15t24 -20t20 -24t15 -28q6 -14 9 -29.5t3 -31.5t-3 -31.5t-9 -29.5q-6 -15 -15 -28t-20 -24q-5 -6 -11 -10.5t-12 -8.5q-6 -5 -12.5 -8.5t-13.5 -6.5v0z" />
<glyph unicode="&#xe24c;" d="M256 480q-40 0 -75 -15t-61 -41t-41 -61t-15 -75q0 -27 7 -51.5t19 -45.5q13 -22 30.5 -39.5t39.5 -29.5v-90l64 -64h64l64 64v90q22 12 39.5 29.5t30.5 39.5q12 21 19 45.5t7 51.5q0 40 -15 75t-41 61t-61 41t-75 15v0zM224 140v8h64v-8h-64v0zM288 132v-1l-16 -2 t-16 -1t-16 1l-16 2v1h64v0zM224 156v8h64v-8h-64v0zM224 172v8h64v-8h-64v0zM224 188v8h64v-8h-64v0zM224 204v8h64v-8h-64v0zM224 220v8h64v-8h-64v0zM224 236v8h64v-8h-64v0zM224 252v8h64v-8h-64v0zM224 268v8h64v-8h-64v0zM224 284v8h64v-8h-64v0zM224 300v8h64v-8h-64 v0zM224 316v4v2v2h64v-2v-2v-4h-64v0zM290 332h-68v0v0q-1 2 -2.5 4t-2.5 4v0v0h78q-1 -2 -2.5 -4t-2.5 -4v0zM290 330v0v0v0v0v0zM222 330v0v0v0v0v0zM207 348v0h1q-5 2 -8.5 3t-8.5 1q-3 0 -7.5 -1t-7.5 -3h0.5t-0.5 0h-68q0 4 2.5 8t3.5 8q0 -2 -1.5 -4t-1.5 -4h289 q2 -2 2.5 -4t1.5 -4h-70h1h1q-5 2 -8.5 3t-8.5 1q-3 0 -7.5 -1t-7.5 -3q-1 0 0 0t0 0h-97v0zM302 347q1 0 0.5 0t0.5 0q-1 0 -0.5 0t-0.5 0v0zM302 346q-1 0 -0.5 0t-0.5 0q1 0 0.5 0t0.5 0v0zM300 345q1 0 0.5 0t0.5 0q-1 0 -0.5 0t-0.5 0v0zM299 344q-1 0 -0.5 0t-0.5 0 q1 0 0.5 0t0.5 0v0zM297 343q1 0 0.5 0t0.5 0q-1 0 -0.5 0t-0.5 0v0zM216 341q-1 0 -0.5 0t-0.5 0q1 0 0.5 0t0.5 0v0zM214 342q1 0 0.5 0t0.5 0q-1 0 -0.5 0t-0.5 0v0zM214 343q-1 0 -0.5 0t-0.5 0q1 0 0.5 0t0.5 0v0zM212 344q1 0 0.5 0t0.5 0q-1 0 -0.5 0t-0.5 0v0z M211 345q-1 0 -0.5 0t-0.5 0q1 0 0.5 0t0.5 0v0zM209 346q1 0 0.5 0t0.5 0q-1 0 -0.5 0t-0.5 0v0zM209 347q-1 0 -0.5 0t-0.5 0q1 0 0.5 0t0.5 0v0zM159 316h-61q-1 -1 -0.5 -2t-0.5 -2q1 3 1 6t2 6h59q1 -1 0.5 -2t0.5 -2q-1 -1 -0.5 -2t-0.5 -2v0zM102 332q-1 -1 -1 -2 t-1 -2q2 4 3 8t3 8q-1 -1 -1 -2t-1 -2h63q-1 0 -0.5 0t-0.5 0q0 -2 -2 -4t-2 -4q-1 0 -0.5 0t-0.5 0h-59v0zM161 330q1 0 0.5 0t0.5 0q-1 0 -0.5 0t-0.5 0v0zM100 324q-1 1 0 2t0 2q1 -1 0 -2t0 -2v0zM174 347q1 0 0.5 0t0.5 0q-1 0 -0.5 0t-0.5 0v0zM174 346q-1 0 -0.5 0 t-0.5 0q1 0 0.5 0t0.5 0v0zM172 345q1 0 0.5 0t0.5 0q-1 0 -0.5 0t-0.5 0v0zM171 344q-1 0 -0.5 0t-0.5 0q1 0 0.5 0t0.5 0v0zM169 343q1 0 0.5 0t0.5 0q-1 0 -0.5 0t-0.5 0v0zM169 342q-1 0 -0.5 0t-0.5 0q1 0 0.5 0t0.5 0v0zM167 341q1 0 0.5 0t0.5 0q-1 0 -0.5 0t-0.5 0 v0zM106 344q-1 1 0 2t1 2q0 -1 -1 -2t0 -2v0zM349 310q1 0 0.5 0t0.5 0q-1 0 -0.5 0t-0.5 0v0zM350 330q-1 0 -0.5 0t-0.5 0q1 0 0.5 0t0.5 0v0zM349 308h66q-1 2 -1 4t-1 4q1 -4 1 -8t2 -8h-72q2 2 3 4t3 4h-1zM351 316q1 1 0.5 2t0.5 2q-1 1 -0.5 2t-0.5 2h61q-1 -2 0 -4 t1 -4h-61h-1zM349 332q0 2 -2 4t-2 4h61q2 -2 2 -4t2 -4h-61v0zM410 332q-1 -1 0 -2t0 -2q1 1 0 2t0 2v0zM410 328q1 -1 1 -2t1 -2q-1 1 -1 2t-1 2v0zM404 348q0 -1 1 -2t0 -2q1 1 0 2t-1 2v0zM405 344q1 -1 1 -2t1 -2q-1 1 -1 2t-1 2v0zM342 343q-1 0 -0.5 0t-0.5 0 q1 0 0.5 0t0.5 0v0zM340 344q1 0 0.5 0t0.5 0q-1 0 -0.5 0t-0.5 0v0zM339 345q-1 0 -0.5 0t-0.5 0q1 0 0.5 0t0.5 0v0zM337 346q1 0 0.5 0t0.5 0q-1 0 -0.5 0t-0.5 0v0zM337 347q-1 0 -0.5 0t-0.5 0q1 0 0.5 0t0.5 0v0zM319 196h68q-2 -2 -3.5 -4t-3.5 -4h-60l-1 8v0z M320 212h76q2 2 2.5 4t2.5 4q-3 -4 -4.5 -8t-5.5 -8h-71l-1 8h1zM320 220l-1 8h85q-1 -2 -1.5 -4t-2.5 -4h-80v0zM319 236l1 8h89q0 -2 -1 -4t-1 -4h-88v0zM407 236q-1 -1 -1 -2t-1 -2q1 1 1 2t1 2v0zM405 232q1 -1 0 -2t-1 -2q0 1 1 2t0 2v0zM320 252l-1 8h95q-2 -3 -2 -6 t-2 -6q1 1 1 2t1 2h-93h1zM411 248q-1 -1 -1 -2t-1 -2q1 1 1 2t1 2v0zM319 268l1 8h95q0 -4 -1 -8t0 -8q-1 2 0 4t0 4h-94h-1zM319 284l1 4q3 0 7.5 1t7.5 3q1 0 0 0t0 0h80q1 1 0.5 2t0.5 2q-1 -2 -0.5 -4t-0.5 -4q1 -2 0.5 -4t0.5 -4q-1 1 -0.5 2t-0.5 2h-95h-1zM415 280 q1 -1 0.5 -2t0.5 -2q-1 1 -0.5 2t-0.5 2v0zM342 297q-1 0 -0.5 0t-0.5 0q1 0 0.5 0t0.5 0v0zM340 296q1 0 0.5 0t0.5 0q-1 0 -0.5 0t-0.5 0v0zM339 295q-1 0 -0.5 0t-0.5 0q1 0 0.5 0t0.5 0v0zM337 294q1 0 0.5 0t0.5 0q-1 0 -0.5 0t-0.5 0v0zM337 293q-1 0 -0.5 0t-0.5 0 q1 0 0.5 0t0.5 0v0zM415 300q1 -1 0.5 -2t0.5 -2q-1 1 -0.5 2t-0.5 2v0zM392 372q-1 1 -1.5 2t-1.5 2q1 -1 1.5 -2t1.5 -2v0zM345 420q0 1 -2 2t-3 2q5 -3 10.5 -7t9.5 -9q0 1 -1.5 2t-1.5 2h-203q3 2 5.5 4t6.5 4h179v0zM166 420q-1 1 0.5 1.5l1.5 0.5l-1.5 -0.5t-0.5 -1.5 v0zM168 422l1.5 1.5t2.5 0.5q-2 0 -2.5 -0.5l-1.5 -1.5v0zM172 424q0 1 1 1.5l1 0.5l-1 -0.5t-1 -1.5v0zM174 426q6 3 10.5 5.5t10.5 4.5q-1 0 -0.5 0t-0.5 0h123q4 -2 9.5 -4.5t9.5 -5.5q0 1 -1.5 1.5t-0.5 0.5h-157q1 0 -0.5 -0.5t-1.5 -1.5h-1zM336 426q2 0 2 -0.5 t2 -1.5q-2 1 -2 1.5t-2 0.5v0zM366 404q-2 1 -2.5 2t-2.5 2q2 -1 2.5 -2t2.5 -2v0zM313 437l-0.5 0.5l-0.5 0.5l0.5 -0.5l0.5 -0.5v0zM311 438l-2 1h-1h1l2 -1v0zM306 440q1 0 0 0h-1h1t0 0v0zM304 441h-2h-1h1h2v0zM300 442h-1h-1h1h1v0zM298 443q-3 0 -4 0.5t-3 0.5 q2 0 3 -0.5t4 -0.5v0zM291 444h-71q4 1 8.5 1.5t8.5 1.5q5 0 9 0.5t10 0.5q4 0 9 -0.5t8 -0.5q6 -1 9.5 -1.5t9.5 -1.5h-1zM197 437q2 0 1.5 0.5t1.5 0.5q-2 0 -1.5 -0.5t-1.5 -0.5v0zM201 438q0 1 1 1t0 0q1 0 0 0t-1 -1v0zM204 440h1h2h-2h-1v0zM208 441h1t0 0q1 0 0 0h-1 v0zM210 442h2h2h-2h-2v0zM214 443q1 0 3 0.5l2 0.5l-2 -0.5t-3 -0.5v0zM149 408q0 -1 -1.5 -2t-1.5 -2h219q2 -1 2 -1.5t2 -1.5q0 -1 2 -2.5t2 -2.5h-235q-3 -2 -4 -4t-4 -4h251q-3 2 -4 4t-4 4q5 -5 8.5 -10t8.5 -10q-2 1 -2 2t-2 2h-261q-2 -1 -2 -2t-2 -2q4 3 5.5 6.5 t5.5 6.5q2 3 5 6t5 6q3 2 4 3.5t4 3.5h-1zM154 412q0 -1 -1.5 -2t-1.5 -2q0 1 1.5 2t1.5 2v0zM122 376q-1 -1 -1.5 -2t-1.5 -2h273q2 -4 4.5 -8t3.5 -8q0 2 -1.5 4t-1.5 4h-283q3 3 4 6t4 6v0zM97 312q1 -1 0 -2t0 -2q-1 1 0 2t0 2v0zM97 308h64q1 0 0.5 0t0.5 0q0 -2 2 -4 t2 -4q1 0 0.5 0t0.5 0h-72q1 -2 0.5 -4t0.5 -4h80q1 0 0 0t0 0q3 -2 7.5 -3t7.5 -1l1 -4h-97q1 -2 0.5 -4t0.5 -4h95l1 -8h-96q1 -2 1 -4t1 -4h93l1 -8h-93q0 4 -1 8.5t-1 9.5q-1 4 -1 8.5t-1 9.5q1 5 1 10t1 10v0zM161 310q1 0 0.5 0t0.5 0q-1 0 -0.5 0t-0.5 0v0zM168 299 q-1 0 -0.5 0t-0.5 0q1 0 0.5 0t0.5 0v0zM168 298q1 0 0.5 0t0.5 0q-1 0 -0.5 0t-0.5 0v0zM170 297q-1 0 -0.5 0t-0.5 0q1 0 0.5 0t0.5 0v0zM170 296q1 0 0.5 0t0.5 0q-1 0 -0.5 0t-0.5 0v0zM173 295q-1 0 -0.5 0t-0.5 0q1 0 0.5 0t0.5 0v0zM173 294q1 0 0.5 0t0.5 0 q-1 0 -0.5 0t-0.5 0v0zM175 293q-1 0 -0.5 0t-0.5 0q1 0 0.5 0t0.5 0v0zM191 244l1 -8h-88q0 2 -1 4t-1 4h89v0zM102 244q-1 1 -1 2t-1 2q1 -1 1 -2t1 -2v0zM100 248q1 1 0 2t0 2q-1 -1 0 -2t0 -2v0zM106 232q-1 -1 0 -2t1 -2h85l-1 -8h-80q0 -2 1.5 -4t1.5 -4h78l-1 -8h-71 q-1 -1 0.5 -2t0.5 -2q-1 4 -4 8t-4 8q-3 4 -4 8t-4 8h1zM105 236q-1 -1 0 -2t0 -2q1 1 0 2t0 2v0zM191 196l1 -8h-62q-1 3 -4 6t-4 6q0 -1 1 -2t1 -2h68h-1zM130 188q3 -2 4 -4t4 -4h53l1 -8h-47q2 -1 2.5 -2t2.5 -2q-3 2 -4 3.5t-4 3.5q-2 3 -5.5 6.5t-5.5 6.5h-1zM149 168 q2 -1 3 -2t3 -2h36l1 -8h-27q3 -2 5 -3.5t5 -2.5q-7 4 -13 8.5t-13 9.5v0zM192 148l-1 -7q-3 2 -8 4t-8 5q0 -1 1.5 -1.5t0.5 -0.5h15v0zM303 32h-95q-8 0 -12 4.5t-5 11.5q1 7 5 11.5t12 4.5h95q8 0 12 -4.5t5 -11.5q-1 -7 -5 -11.5t-12 -4.5v0zM320 148h13q1 0 1.5 0.5 t2.5 1.5q-5 -3 -9 -5t-9 -4l1 7v0zM336 150q3 1 5 2.5t5 3.5h-27l1 8h36q-4 -4 -9.5 -7.5t-9.5 -6.5h-1zM356 164q2 1 3 2t3 2q-2 -1 -3 -2t-3 -2v0zM362 168q0 1 1.5 2t1.5 2q0 -1 -1.5 -2t-1.5 -2v0zM365 172h-45l-1 8h55q-2 -1 -3 -2.5t-3 -2.5q0 -1 -1 -1.5t-1 -1.5h-1z M380 188q-1 -2 -3 -4t-3 -4q1 2 3 4t3 4v0zM390 200q-1 1 0.5 2t0.5 2q1 -1 -0.5 -2t-0.5 -2v0zM386 196q2 1 2 2t2 2q-2 -1 -2 -2t-2 -2v0z" />
<glyph unicode="&#xe277;" d="M160 16q-23 0 -43.5 9t-35.5 24t-24 35.5t-9 43.5q0 16 4.5 31.5t12.5 28.5t19.5 23t25.5 17l-22 43q-19 -10 -35.5 -24.5t-27.5 -33.5q-12 -18 -18.5 -40t-6.5 -45q0 -33 12.5 -62t34.5 -51t51 -34.5t62 -12.5t62 12.5t51 34.5t34.5 51t12.5 62h-48q0 -23 -9 -43.5 t-24 -35.5t-35.5 -24t-43.5 -9v0zM480 128l-32 -32l-109 109h-115v51h128v32h-128v64h-64v-192h160l128 -128l64 64zM144 432q0 10 4 18.5t10 15.5q7 6 15.5 10t18.5 4t18.5 -4t15.5 -10q6 -7 10 -15.5t4 -18.5t-4 -18.5t-10 -15.5q-7 -6 -15.5 -10t-18.5 -4t-18.5 4 t-15.5 10q-6 7 -10 15.5t-4 18.5v0z" />
<glyph unicode="&#xe278;" d="M409 331q16 -16 20.5 -38t-8.5 -39q-11 -18 -41 -25.5t-79 4.5q-14 -2 -31.5 -4t-36.5 1q-16 2 -30.5 10.5t-16.5 27.5q-6 -3 -17.5 3.5t-20.5 20.5q-8 15 -8 36t21 46q22 31 60 42.5t75 5.5q38 -6 69 -29t44 -62v0zM110 49q-7 10 -11.5 25.5t-4.5 32.5q-2 16 -0.5 30.5 t1.5 23.5h-41q-10 0 -16 4t-10 11q-1 4 -1.5 9t2.5 11q1 5 5 10.5t8 10.5q10 8 16 16.5t11 16.5q4 7 6.5 14t1.5 12l1 1q-1 6 0 24t5 41q5 14 9 27.5t11 25.5q6 11 14 21.5t16 19.5q13 11 26 19t30 14q14 5 32.5 8t36.5 3q23 0 48 -3t51 -12q25 -9 49 -24.5t41 -40.5 q8 -10 13.5 -21l11.5 -23q3 -13 6.5 -25.5t4.5 -26.5q2 -12 1 -24t-1 -24q-3 -12 -5 -24t-8 -23q-3 -13 -10.5 -23l-13.5 -18q-8 -8 -14.5 -15t-11.5 -13q-7 -11 -14 -25.5t-11 -34.5q-6 -21 -8.5 -48.5t-4.5 -63.5h-31q0 40 4 70t8 52q7 23 14.5 39t17.5 28q3 6 9.5 12 t12.5 14q7 7 13 16t11 21q3 9 6 19t3 21q2 10 2 20.5v21.5l-4 22t-7 21q-3 10 -8.5 19.5t-10.5 18.5q-7 7 -13 14t-15 13q-6 6 -15 11t-17 9q-12 5 -23 8.5t-25 6.5q-12 2 -26.5 3.5t-28.5 1.5q-9 0 -17 -1t-17 -2q-7 -1 -14.5 -3t-13.5 -5q-7 -2 -11.5 -4.5t-10.5 -5.5 q-5 -3 -10 -7t-8 -8q-9 -7 -14.5 -15.5t-11.5 -18.5q-5 -10 -9.5 -21t-5.5 -24q-6 -20 -6 -36t-1 -22q1 0 0.5 -0.5t0.5 -0.5q-1 -9 -3.5 -19.5t-9.5 -20.5q-5 -10 -13.5 -20.5t-17.5 -20.5q-2 -1 -2.5 -2t-2.5 -2h73l-6 -27q1 0 -1 -12t-2 -27q-1 -26 4 -39.5t6 -16.5 q3 -3 5 -3.5t6 -0.5q13 0 23 -0.5t16 -1.5q8 -2 12.5 -4.5t10.5 -7.5q5 -6 9 -16.5t4 -22.5q3 -12 2.5 -24t0.5 -20h-33q1 13 0 35t-6 27q-6 4 -12.5 4h-27.5q-4 0 -9.5 1t-8.5 3q-6 2 -9 4.5t-8 6.5v0z" />
<glyph unicode="&#xe2f3;" d="M460 224l46 57l-66 32l16 71l-73 -1l-16 72l-66 -32l-45 57l-45 -57l-66 32l-16 -72l-73 1l16 -71l-66 -32l46 -57l-46 -57l66 -32l-16 -71l73 1l16 -72l66 32l45 -57l45 57l66 -32l16 72l73 -1l-16 71l66 32l-46 57v0zM256 60q-33 0 -62 12.5t-50 35.5q-22 22 -34.5 52 t-12.5 64t12.5 64t34.5 52q21 23 50 35.5t62 12.5t62 -13t50 -36q22 -22 34.5 -52t12.5 -64t-12.5 -64t-34.5 -52q-21 -23 -50 -35.5t-62 -12.5v1zM128 223q0 27 10 50t27 41q18 17 41 27t50 10t50 -10t41 -27q17 -18 27 -41t10 -50t-10 -50t-27 -41q-18 -17 -41 -27 t-50 -10t-50 10t-41 27q-17 18 -27 41t-10 50v0z" />
<glyph unicode="&#xe2f9;" d="M358 448q-11 7 -23 12l-24 10l-24 6t-24 4q23 -29 36.5 -65t16.5 -72q2 -38 -6 -75t-28 -73q-20 -34 -48.5 -60.5t-62.5 -41.5q-34 -17 -71 -23t-74 -2q7 -8 15.5 -17.5t17.5 -17.5q10 -9 20.5 -16t21.5 -15q46 -25 96.5 -31.5t98.5 7.5q48 12 88.5 42.5t67.5 76.5 q27 47 32.5 97t-6.5 99q-13 46 -43.5 87.5t-76.5 67.5v0z" />
<glyph unicode="&#xe3d0;" d="M256 480q53 0 99.5 -20t81.5 -55t55 -81.5t20 -99.5t-20 -99.5t-55 -81.5t-81.5 -55t-99.5 -20t-99.5 20t-81.5 55t-55 81.5t-20 99.5t20 99.5t55 81.5t81.5 55t99.5 20v0zM128 160q0 -7 2.5 -12.5t6.5 -10.5q5 -4 10.5 -6.5t12.5 -2.5t12.5 2.5t10.5 6.5q4 5 6.5 10.5 t2.5 12.5v83l137 -138q5 -4 11 -6.5t12 -2.5t12 2.5t11 6.5q4 5 6.5 11t2.5 12t-2.5 12t-6.5 11l-138 137h83q7 0 12.5 2.5t10.5 6.5q4 5 6.5 10.5t2.5 12.5t-2.5 12.5t-6.5 10.5q-5 4 -10.5 6.5t-12.5 2.5h-192v-192v0z" />
<glyph unicode="&#xe3d1;" d="M512 224q0 -53 -20 -99.5t-55 -81.5t-81.5 -55t-99.5 -20t-99.5 20t-81.5 55t-55 81.5t-20 99.5t20 99.5t55 81.5t81.5 55t99.5 20t99.5 -20t81.5 -55t55 -81.5t20 -99.5v0zM233 375l-128 -128q-4 -5 -6.5 -11t-2.5 -12t2.5 -12t6.5 -11q5 -4 11 -6.5t12 -2.5t12 2.5 t11 6.5l73 74v-179q0 -7 2.5 -12.5t6.5 -10.5q5 -4 10.5 -6.5t12.5 -2.5t12.5 2.5t10.5 6.5q4 5 6.5 10.5t2.5 12.5v179l73 -74q5 -4 11 -6.5t12 -2.5t12 2.5t11 6.5q4 5 6.5 11t2.5 12t-2.5 12t-6.5 11l-128 128q-5 4 -11 6.5t-12 2.5t-12 -2.5t-11 -6.5v0z" />
<glyph unicode="&#xe3d2;" d="M256 480q-53 0 -99.5 -20t-81.5 -55t-55 -81.5t-20 -99.5t20 -99.5t55 -81.5t81.5 -55t99.5 -20t99.5 20t81.5 55t55 81.5t20 99.5t-20 99.5t-55 81.5t-81.5 55t-99.5 20v0zM384 160q0 -7 -2.5 -12.5t-6.5 -10.5q-5 -4 -10.5 -6.5t-12.5 -2.5t-12.5 2.5t-10.5 6.5 q-4 5 -6.5 10.5t-2.5 12.5v83l-137 -138q-5 -4 -11 -6.5t-12 -2.5t-12 2.5t-11 6.5q-4 5 -6.5 11t-2.5 12t2.5 12t6.5 11l138 137h-83q-7 0 -12.5 2.5t-10.5 6.5q-4 5 -6.5 10.5t-2.5 12.5t2.5 12.5t6.5 10.5q5 4 10.5 6.5t12.5 2.5h192v-192v0z" />
<glyph unicode="&#xe3d3;" d="M256 480q-53 0 -99.5 -20t-81.5 -55t-55 -81.5t-20 -99.5t20 -99.5t55 -81.5t81.5 -55t99.5 -20t99.5 20t81.5 55t55 81.5t20 99.5t-20 99.5t-55 81.5t-81.5 55t-99.5 20v0zM407 201l-128 -128q-5 -4 -11 -6.5t-12 -2.5t-12 2.5t-11 6.5q-4 5 -6.5 11t-2.5 12t2.5 12 t6.5 11l74 73h-179q-7 0 -12.5 2.5t-10.5 6.5q-4 5 -6.5 10.5t-2.5 12.5t2.5 12.5t6.5 10.5q5 4 10.5 6.5t12.5 2.5h179l-74 73q-4 5 -6.5 11t-2.5 12t2.5 12t6.5 11q5 4 11 6.5t12 2.5t12 -2.5t11 -6.5l128 -128q4 -5 6.5 -11t2.5 -12t-2.5 -12t-6.5 -11v0z" />
<glyph unicode="&#xe3d4;" d="M256 -32q-53 0 -99.5 20t-81.5 55t-55 81.5t-20 99.5t20 99.5t55 81.5t81.5 55t99.5 20t99.5 -20t81.5 -55t55 -81.5t20 -99.5t-20 -99.5t-55 -81.5t-81.5 -55t-99.5 -20v0zM384 288q0 7 -2.5 12.5t-6.5 10.5q-5 4 -10.5 6.5t-12.5 2.5t-12.5 -2.5t-10.5 -6.5 q-4 -5 -6.5 -10.5t-2.5 -12.5v-83l-137 138q-5 4 -11 6.5t-12 2.5t-12 -2.5t-11 -6.5q-4 -5 -6.5 -11t-2.5 -12t2.5 -12t6.5 -11l138 -137h-83q-7 0 -12.5 -2.5t-10.5 -6.5q-4 -5 -6.5 -10.5t-2.5 -12.5t2.5 -12.5t6.5 -10.5q5 -4 10.5 -6.5t12.5 -2.5h192v192v0z" />
<glyph unicode="&#xe3d5;" d="M512 224q0 53 -20 99.5t-55 81.5t-81.5 55t-99.5 20t-99.5 -20t-81.5 -55t-55 -81.5t-20 -99.5t20 -99.5t55 -81.5t81.5 -55t99.5 -20t99.5 20t81.5 55t55 81.5t20 99.5v0zM233 73l-128 128q-4 5 -6.5 11t-2.5 12t2.5 12t6.5 11q5 4 11 6.5t12 2.5t12 -2.5t11 -6.5 l73 -74v179q0 7 2.5 12.5t6.5 10.5q5 4 10.5 6.5t12.5 2.5t12.5 -2.5t10.5 -6.5q4 -5 6.5 -10.5t2.5 -12.5v-179l73 74q5 4 11 6.5t12 2.5t12 -2.5t11 -6.5q4 -5 6.5 -11t2.5 -12t-2.5 -12t-6.5 -11l-128 -128q-5 -4 -11 -6.5t-12 -2.5t-12 2.5t-11 6.5v0z" />
<glyph unicode="&#xe3d6;" d="M256 -32q53 0 99.5 20t81.5 55t55 81.5t20 99.5t-20 99.5t-55 81.5t-81.5 55t-99.5 20t-99.5 -20t-81.5 -55t-55 -81.5t-20 -99.5t20 -99.5t55 -81.5t81.5 -55t99.5 -20v0zM128 288q0 7 2.5 12.5t6.5 10.5q5 4 10.5 6.5t12.5 2.5t12.5 -2.5t10.5 -6.5q4 -5 6.5 -10.5 t2.5 -12.5v-83l137 138q5 4 11 6.5t12 2.5t12 -2.5t11 -6.5q4 -5 6.5 -11t2.5 -12t-2.5 -12t-6.5 -11l-138 -137h83q7 0 12.5 -2.5t10.5 -6.5q4 -5 6.5 -10.5t2.5 -12.5t-2.5 -12.5t-6.5 -10.5q-5 -4 -10.5 -6.5t-12.5 -2.5h-192v192v0z" />
<glyph unicode="&#xe3d7;" d="M256 480q53 0 99.5 -20t81.5 -55t55 -81.5t20 -99.5t-20 -99.5t-55 -81.5t-81.5 -55t-99.5 -20t-99.5 20t-81.5 55t-55 81.5t-20 99.5t20 99.5t55 81.5t81.5 55t99.5 20v0zM105 201l128 -128q5 -4 11 -6.5t12 -2.5t12 2.5t11 6.5q4 5 6.5 11t2.5 12t-2.5 12t-6.5 11 l-74 73h179q7 0 12.5 2.5t10.5 6.5q4 5 6.5 10.5t2.5 12.5t-2.5 12.5t-6.5 10.5q-5 4 -10.5 6.5t-12.5 2.5h-179l74 73q4 5 6.5 11t2.5 12t-2.5 12t-6.5 11q-5 4 -11 6.5t-12 2.5t-12 -2.5t-11 -6.5l-128 -128q-4 -5 -6.5 -11t-2.5 -12t2.5 -12t6.5 -11v0z" />
<glyph unicode="&#xe410;" d="M512 96l-256 256l-256 -256l256 128z" />
<glyph unicode="&#xe411;" d="M128 -32l256 256l-256 256l128 -256z" />
<glyph unicode="&#xe412;" d="M0 352l256 -256l256 256l-256 -128z" />
<glyph unicode="&#xe413;" d="M384 480l-256 -256l256 -256l-128 256z" />
<glyph unicode="&#xe445;" d="M0 416l192 -192v-192l128 32v160l192 192h-512z" />
<glyph unicode="&#xe446;" d="M435 384l-147 -147v-148l-64 -16v164l-147 147h358v0zM512 416h-512l192 -192v-192l128 32v160l192 192v0z" />
<glyph unicode="&#xe4db;" d="M427 480h-341q-18 0 -33 -6.5t-28 -18.5q-11 -12 -18 -27.5t-6 -32.5l-1 -342q1 -17 7 -32.5t19 -27.5q11 -12 27 -18.5t32 -6.5h343q16 0 32 6.5t27 18.5q13 12 19 27.5t7 32.5l-1 342q1 17 -6 32.5t-18 27.5q-13 12 -28 18.5t-33 6.5v0zM471 10q-5 -4 -9.5 -7.5 t-11.5 -5.5q-4 -3 -10.5 -4t-11.5 -1h-343q-5 0 -11.5 1t-10.5 4q-7 2 -11.5 5.5t-9.5 7.5q-3 4 -7 9t-5 11q-4 5 -4.5 11t-1.5 12l1 342q-1 6 0.5 12t3.5 11q3 6 6 11t8 9q3 4 8.5 7.5t10.5 5.5q6 3 11.5 4t12.5 1h341h5.5t5.5 -1l-106 -145l-49 49q-6 5 -12 8t-14 3 q-7 0 -14 -3t-11 -8l-23 -22q0 1 -1.5 2.5t-1.5 2.5q-13 13 -27.5 20.5t-31.5 8.5q-15 1 -31.5 -4t-28.5 -16q-15 -11 -22 -26t-9 -32q0 -16 4.5 -32t16.5 -29q4 -6 11 -11t12 -8q1 -7 3.5 -13.5t8.5 -11.5l119 -120q6 -6 12 -8.5t15 -2.5q6 0 13 2.5t11 8.5l121 120 q5 5 8 11.5t2 13.5q1 8 -2 14.5t-8 11.5l-14 14l100 87l-1 -287q1 -6 -0.5 -12t-3.5 -11q-3 -6 -6 -11t-8 -9h1zM221 315l27 27l4.5 3t5.5 1q1 0 4 -1t4 -3l52 -52l-57 -77q-3 -4 -7 -3t-4 3q-2 0 -10 11.5t-22 28.5q4 7 5 15t3 16q-1 7 -1.5 15t-4.5 16h1zM251 144 q-1 0 2.5 -1.5t5.5 1.5l112 93l14 -15q3 -2 3.5 -4t1.5 -5q-1 -2 -1.5 -4.5t-3.5 -4.5l-118 -119q-3 -2 -5 -3t-5 -1q-2 0 -4.5 1t-3.5 3l-120 118q6 0 11 -0.5t11 0.5q4 1 9.5 2t9.5 3l81 -64v0z" />
<glyph unicode="&#xe4dc;" d="M512 480h-57l-123 -170l-50 49q-5 5 -11.5 8t-13.5 3q-8 0 -14.5 -3t-11.5 -8l-22 -22q-1 1 -2 2.5t-2 2.5q-12 13 -27 20.5t-31 8.5t-32 -4t-29 -16q-14 -11 -21.5 -26t-8.5 -32q-1 -16 4 -32t16 -29q5 -6 11.5 -11t12.5 -8q0 -7 3 -13.5t8 -11.5l120 -120 q5 -6 11.5 -8.5t14.5 -2.5q7 0 13.5 2.5t11.5 8.5l120 120q6 5 8.5 11.5t2.5 13.5q0 8 -2.5 14.5t-8.5 11.5l-13 14l123 104v123v0zM248 342q2 2 4 3t5 1q2 0 4.5 -1t4.5 -3l51 -52l-56 -77q-4 -4 -7.5 -3t-4.5 3q-1 0 -9.5 11.5t-21.5 28.5q3 7 4.5 15t2.5 16q0 7 -1 15 t-4 16l28 27v0zM385 222q2 -2 3 -4t1 -5q0 -2 -1 -4.5t-3 -4.5l-119 -119q-2 -2 -4.5 -3t-4.5 -1q-3 0 -5 1t-4 3l-119 118q5 0 10.5 -0.5t10.5 0.5l10 2t10 3l80 -64l3 -1.5t6 1.5l111 93l15 -15v0z" />
<glyph unicode="&#xe600;" horiz-adv-x="510" d="M254 480q-53 0 -99 -20t-82 -55q-33 -35 -53.5 -81.5t-19.5 -99.5q-1 -53 19.5 -100t54.5 -81q35 -35 81 -55t99 -20t100 20t81 55q36 34 55.5 81t20.5 100q-1 53 -20.5 99.5t-55.5 81.5q-34 35 -81 55t-100 20v0zM132 422q7 4 15.5 9t18.5 8q2 2 4.5 2h3.5q8 -1 19 -5.5 t25 -14.5q7 -6 14.5 -13.5t11.5 -14.5q5 -6 5 -10.5t-3 -3.5l-7 1l-8 1q-6 1 -11.5 0.5t-8.5 0.5q-2 0 -2.5 0.5t-2.5 1.5q-6 6 -14 11t-15 9q-10 4 -19 6.5t-22 3.5q-4 1 -5 4t2 4h-1zM402 285q-5 -3 -15.5 -2t-16.5 3q-4 0 -7.5 0.5t-5.5 -2.5q-1 -4 -1 -8.5t3 -7.5 q1 -3 3.5 -6t4.5 -4q6 -2 10.5 -3t9.5 -3q3 -2 5 -6t2 -9q1 -5 -0.5 -9.5t-2.5 -8.5q-5 -5 -15 -6.5t-22 -1.5q-4 0 -10.5 0.5t-10.5 0.5q-6 0 -10.5 -0.5t-9.5 -2.5q-7 -3 -12 -8.5t-8 -12.5q-2 0 -2.5 -0.5t-2.5 0.5q-12 8 -27.5 15t-29.5 14q-15 7 -27 16.5t-23 22.5 q-3 6 -6.5 14t-4.5 17q-2 11 -0.5 20t3.5 17q5 8 9.5 14t11.5 11q2 2 8.5 5t13.5 5q9 1 18.5 1t21.5 -2q5 -2 19 -6.5t24 -9.5q6 -3 10 -6t10 -7q3 -3 8 -6.5t9 -6.5q7 -3 13.5 -6t15.5 -5q6 -2 14 -5t13 -6q4 -1 8 -4.5t3 -4.5h-1zM403 194q2 -2 2 -4.5t1 -5.5 q-2 -8 -6.5 -13.5t-6.5 -13.5q1 -2 0 -3.5l-1 -1.5q-6 -6 -15 -6t-20 1q-2 0 -5.5 0.5t-5.5 1.5t-3 2.5t-4 2.5q-2 3 -4.5 5.5t-4.5 5.5q-2 1 -3.5 3t-2.5 3q1 1 1.5 4t1.5 4q0 3 2 5l4 4q5 2 11.5 3t14.5 1q6 1 13.5 1.5t11.5 2.5t6.5 4.5t8.5 0.5l3 -3t1 -4v0zM56 345 q1 4 4.5 9t6.5 10q5 5 8.5 9.5t7.5 7.5q1 2 2.5 2.5t2.5 1.5q13 3 24.5 3.5t24.5 -0.5q10 -1 21 -4t19 -7q5 -1 6 -3.5t-1 -4.5q-4 -2 -11.5 -7.5t-14.5 -10.5q-1 -1 -4 -1.5l-3 -0.5q-12 2 -20 3t-18 0q-8 -1 -20 -4t-26 -9q-6 -2 -9 0.5t-1 5.5h1zM33 148q-4 11 -7 24 t-5 28q-1 15 -0.5 33t5.5 37q-1 2 0 3t1 3q3 3 27 24t64 28q5 1 9 0.5t4 -2.5q2 -4 -1 -6.5t-5 -4.5q-33 -19 -49 -41.5t-24 -44.5q-6 -22 -7 -41t0 -31q-1 -9 -5.5 -11t-7.5 2h1zM236 -10q-20 2 -37 6.5t-35 11.5q-16 7 -31.5 16t-27.5 20q-5 3 -6 5.5t-4 6.5q-8 13 -14 40 t-7 57q-3 30 1 58.5t14 43.5q7 11 12 8t4 -11q-3 -10 -3 -17.5v-15.5q3 -7 5.5 -15.5t7.5 -18.5q6 -16 20.5 -33.5t27.5 -33.5q16 -16 28 -30t19 -22q20 -26 28 -44t7 -24q1 -4 -1 -6t-8 -2v0zM391 34q-9 -7 -18.5 -12.5t-18.5 -10.5q-11 -4 -21.5 -8t-24.5 -7q-2 -1 -6.5 1 t-6.5 10q-19 46 -41 71t-45 43q-22 19 -42.5 37.5t-33.5 51.5q-7 14 -7.5 26.5t-0.5 23.5q2 11 4 19t6 13q1 5 4 7.5t5 1.5q5 -1 5.5 -4.5t2.5 -9.5q1 -28 10 -47t22 -33q15 -14 32.5 -24t39.5 -20q16 -8 33.5 -17.5t34.5 -22.5q18 -13 34.5 -30t33.5 -40q3 -7 4 -11.5 t-5 -7.5v0zM458 108q-3 -4 -6.5 -10t-9.5 -13q-3 -6 -9 -12.5t-10 -10.5q-6 -6 -8.5 -3.5t-5.5 6.5q-3 8 -7 15l-8 14q-5 7 -9.5 13.5t-11.5 13.5q-1 2 0 4.5t5 1.5q3 0 6.5 0.5t6.5 1.5q5 2 8 7t6 12q0 5 1.5 7t3.5 2h3h2q3 -1 7.5 -4t6.5 -5q9 -6 18 -16.5t12 -15.5 q1 -2 0.5 -4t-2.5 -4h1zM408 240q-1 0 -0.5 2t-0.5 2q1 1 2 2.5t4 2.5q0 2 2.5 3t3.5 2h1l1 -1q1 -3 2.5 -9t0.5 -13q0 -7 -1.5 -13t-2.5 -11q-1 -1 -1.5 -1h-1.5q-1 4 -4 7.5t-5 5.5q-2 1 -1.5 1.5t-0.5 0.5q2 4 2 9v10v0zM470 151q-2 3 -8 6.5t-11 6.5q-8 4 -14.5 7.5 t-15.5 6.5q1 0 0.5 1t0.5 2q0 2 1 4t0 5q2 3 3 5t3 4q3 6 5.5 15t2.5 15q2 6 1 12.5t-1 12.5q-2 2 -2.5 5t-1.5 5q1 3 1 5.5t2 6.5q-1 8 -8.5 15t-14.5 10q-6 3 -13.5 6t-14.5 6l-15 7.5l-15 7.5l-7.5 5t-6.5 7q-5 4 -8 7.5t-7 5.5q-3 3 -10 6t-13 7q-8 3 -15 5.5t-12 3.5 q-1 1 -2.5 1.5t-0.5 2.5q-3 9 -6 17.5t-9 17.5q-4 9 -12 17t-17 16q-7 4 -1.5 7t13.5 3q67 2 118 -24.5t84 -69.5q31 -43 42 -96.5t-6 -105.5q0 -4 -2.5 -8.5t-5.5 -1.5h-1zM276 324q-4 -1 -8 -1.5t-7 -1.5q-5 -1 -8.5 -4t-2.5 -9q3 -4 7.5 -6t9.5 -3q3 -2 8.5 -3.5 t8.5 -3.5q3 -1 4.5 -3.5t5.5 -1.5q2 0 4.5 4.5t2.5 7.5q1 5 0.5 10t-1.5 7q-3 5 -9 6.5t-15 1.5v0z" />
<glyph unicode="&#xe601;" horiz-adv-x="513" d="M409 301q-7 4 -15.5 6.5t-16.5 6.5q-8 1 -15.5 4.5t-14.5 6.5q-6 4 -10.5 7.5t-9.5 7.5q-5 3 -10 7t-11 6q-12 7 -26.5 11.5t-21.5 7.5q-12 2 -23 2t-20 -2q-8 -1 -15 -4.5t-10 -5.5q-7 -6 -12.5 -12.5t-8.5 -15.5q-4 -8 -5.5 -18.5t0.5 -21.5q1 -6 2.5 -10.5t2.5 -9.5 q2 -3 4 -7.5t4 -6.5q10 -16 24 -25.5t30 -18.5q16 -7 32.5 -15t30.5 -16q2 -1 3 -0.5l1 0.5q5 8 10 13.5t14 9.5q4 1 9.5 2.5t11.5 0.5q6 1 12 0t12 0q12 -2 23.5 0.5t15.5 7.5q3 4 4 9t0 11q0 4 -2 9t-6 7q-4 3 -10 3.5t-11 3.5q-3 1 -5.5 4t-4.5 6q-2 5 -2.5 9.5t1.5 8.5 q1 3 5.5 3t7.5 -2q8 0 19 -1.5t18 2.5q2 0 -3 4.5t-8 4.5v0zM308 307q-1 -4 -3 -8.5t-5 -5.5q-3 0 -5.5 2t-5.5 5q-3 1 -8.5 3t-10.5 3l-10 4t-7 7q-3 5 1.5 9t9.5 4q4 3 8 3t9 1q9 0 16 -1.5t9 -7.5q2 -2 2.5 -8t-0.5 -10v0zM5 274q1 4 1.5 4.5t1.5 3.5q2 2 28.5 25.5 t70.5 30.5q6 2 10 1t5 -3q1 -5 -1.5 -7t-6.5 -5q-35 -20 -53 -45.5t-26 -48.5q-7 -25 -7.5 -45t-1.5 -34q0 -10 -5 -12.5t-7 3.5q-4 10 -7.5 25t-5.5 31q-1 18 -0.5 36.5t4.5 40.5v-1zM69 397q1 2 2.5 2.5t3.5 1.5q13 3 26.5 4t25.5 -1q13 0 24.5 -4t21.5 -7q4 -3 5.5 -5 t-1.5 -5q-3 -1 -12 -7.5t-15 -11.5q-2 -2 -5 -2h-5q-11 2 -20.5 2.5t-19.5 0.5q-10 -2 -22 -4.5t-30 -9.5q-5 -2 -8.5 0t-1.5 7q3 3 6.5 9t7.5 10q4 7 8.5 11.5t8.5 9.5v-1zM128 433q-6 1 -6.5 4t1.5 5q7 4 16.5 9.5t20.5 8.5q3 2 5 2t5 1q7 -2 19.5 -7t27.5 -16 q8 -5 16 -14t13 -15q5 -8 5.5 -12.5t-4.5 -4.5q-7 2 -7.5 1.5t-7.5 1.5h-13.5h-9.5q-1 1 -2.5 1.5t-2.5 1.5q-7 6 -15.5 12t-17.5 9q-9 5 -20 7.5t-23 5.5v-1zM504 155q-1 -4 -3.5 -9t-6.5 -1l-9 6t-13 8q-7 5 -15 8.5t-16 7.5q-1 -1 -1 0.5t0 0.5l1.5 6l1.5 6q0 2 2 4.5 t3 3.5q4 8 6.5 17.5t3.5 17.5v12.5t-2 12.5q0 4 -1.5 6.5t-1.5 6.5q0 2 1 5.5t1 5.5q1 11 -8 18t-16 11q-7 3 -15 6.5t-16 6.5q-8 5 -16 8t-16 8q-5 2 -9 6t-8 7q-4 5 -7.5 8.5l-7.5 7.5q-4 2 -11 6t-15 6q-9 5 -16.5 7t-12.5 4q-2 0 -3 1.5t-1 2.5q-2 10 -6 19.5t-10 19.5 q-6 9 -14 18.5t-18 16.5q-7 6 -1.5 8.5t14.5 4.5q74 1 130 -27.5t91 -76.5q35 -46 46.5 -105.5t-5.5 -115.5v-1zM425 241v3.5v2.5l2 2.5t3 2.5q2 2 4 3t3 3q1 -1 1.5 -1t0.5 -1q2 -3 3 -10t1 -13q0 -9 -1.5 -15.5t-3.5 -11.5l-1 -1t-1 1q-2 3 -5 7t-6 5q-1 2 -1 2.5v1.5 q1 3 1.5 8.5t-0.5 10.5v0zM336 176q2 2 3.5 4.5t3.5 3.5q5 4 12.5 4t15.5 2q8 0 15.5 1t12.5 3q4 2 7.5 4.5t8.5 0.5l3.5 -3.5t2.5 -4.5q1 -1 1 -4v-6q0 -5 -2 -8.5t-4 -7.5q-2 -3 -4 -7t-3 -7q0 -2 -0.5 -3.5t-0.5 -3.5q-3 -2 -7.5 -3.5t-9.5 -0.5q-4 -2 -9.5 -1t-10.5 1 q-4 1 -7.5 1t-6.5 2q-2 0 -3.5 2t-2.5 2q-4 4 -6 6.5t-6 6.5q-1 1 -3 3.5l-2 2.5q0 2 1 4.5t1 5.5v0zM92 27q-3 4 -5.5 6.5t-4.5 6.5q-9 14 -15.5 44t-7.5 62q-2 34 1.5 64.5t15.5 48.5q7 11 13 8.5t3 -12.5q-2 -10 -2.5 -19t1.5 -16q1 -10 4.5 -18.5t8.5 -20.5 q8 -16 22.5 -35.5t30.5 -36.5q16 -19 30.5 -33.5t20.5 -24.5q22 -28 31 -48.5t9 -25.5q-1 -5 -2.5 -7t-9.5 -2q-20 2 -40 6.5t-38 13.5q-18 6 -34.5 17t-31.5 22v0zM123 210q-6 14 -7.5 28.5t-0.5 25.5q1 12 4 21t6 15q3 4 5.5 7.5t6.5 1.5q4 0 5 -4.5t2 -10.5 q2 -32 11.5 -52t24.5 -37q15 -14 35 -25.5t43 -21.5q18 -10 37 -20t38 -25q19 -13 38 -32t36 -44q5 -8 5.5 -12.5t-5.5 -9.5q-11 -6 -21 -12.5t-21 -10.5q-11 -6 -22.5 -10t-25.5 -8q-4 0 -8.5 1.5t-8.5 11.5q-19 49 -43.5 77t-49.5 47q-24 22 -46.5 42t-37.5 57v0zM442 46 q-6 -5 -9.5 -3t-5.5 7q-4 8 -8 16.5t-9 15.5q-5 8 -10 15t-12 15q-2 1 -1 4t5 2h7.5t7.5 3q4 1 8 7t6 12q2 7 3 8.5t4 3.5q1 -1 2.5 -0.5t2.5 -1.5q4 0 8.5 -3.5t7.5 -4.5q9 -8 19.5 -19t12.5 -17q2 -2 1 -4.5t-2 -3.5q-2 -6 -6.5 -12t-9.5 -14q-6 -6 -11.5 -13.5 t-10.5 -11.5v-1z" />
<glyph unicode="&#xe602;" d="M512 185l-256 199l-256 -199v82l256 198l256 -198v-82zM448 192v-191l-128 -1v129l-128 -1v-127l-128 -1v193l192 143z" />
<glyph unicode="&#xe603;" d="M512 176l-96 96v144h-64v-80l-96 96l-256 -256v-16h64v-160h160v96h64v-96h160v160h64v16z" />
<glyph unicode="&#xe604;" d="M256 448l-256 -256l48 -48l48 48l32 -192h96v96h64v-96h96l32 192l48 -48l48 48l-256 256v0zM256 243q-9 0 -17.5 3.5t-14.5 9.5t-9.5 14.5t-3.5 17.5t3.5 17.5t9.5 14.5t14.5 9.5t17.5 3.5t17.5 -3.5t14.5 -9.5t9.5 -14.5t3.5 -17.5t-3.5 -17.5t-9.5 -14.5t-14.5 -9.5 t-17.5 -3.5v0z" />
<glyph unicode="&#xe605;" d="M0 -32h256v512h-256v-512v0zM160 416h64v-64h-64v64v0zM160 288h64v-64h-64v64v0zM160 160h64v-64h-64v64v0zM32 416h64v-64h-64v64v0zM32 288h64v-64h-64v64v0zM32 160h64v-64h-64v64v0zM288 320h224v-32h-224v32zM288 -32h64v128h96v-128h64v288h-224v-288z" />
<glyph unicode="&#xe606;" d="M448 352v64h-448v-352q0 -7 2.5 -12.5t6.5 -10.5q5 -4 10.5 -6.5t12.5 -2.5h432q10 0 18.5 4t15.5 10q6 7 10 15.5t4 18.5v272h-64v0zM416 64h-384v320h384v-320v0zM64 320h320v-32h-320v32zM256 256h128v-32h-128v32zM256 192h128v-32h-128v32zM256 128h96v-32h-96v32z M64 256h160v-160h-160v160z" />
<glyph unicode="&#xe607;" d="M432 480q17 0 31.5 -6.5t25.5 -16.5q10 -11 16.5 -25.5t6.5 -31.5q0 -7 -1 -13.5t-3 -12.5t-5 -11.5t-7 -10.5l-32 -32l-112 112l32 32q5 4 10.5 7t11.5 5t12.5 3t13.5 1v0zM32 112l-32 -144l144 32l296 296l-112 112l-296 -296v0zM358 298l-224 -224l-28 28l224 224 l28 -28v0z" />
<glyph unicode="&#xe608;" d="M192 160l64 32l224 224l-32 32l-224 -224l-32 -64v0zM145 46q-6 13 -12.5 22.5t-14.5 17.5t-17.5 14.5t-22.5 12.5l50 136l64 39l192 192h-96l-192 -192l-96 -320l320 96l192 192v96l-192 -192l-39 -64z" />
<glyph unicode="&#xe609;" d="M192 187l58 27.5t101 9.5q5 6 9.5 13.5t8.5 14.5t8.5 14.5t8.5 14.5q-42 11 -86 6.5l-44 -4.5l55 26t98 13q5 8 9 15.5t9 15.5q4 8 8 15.5t8 14.5q-34 2 -62.5 -1l-28.5 -3l36.5 18.5t76.5 22.5q7 11 13 20t12 17q6 7 11.5 13t10.5 10q-105 0 -189 -53t-148 -131 t-107.5 -167t-67.5 -161h32l96 160l28 -12t100 12q9 3 17.5 8t16.5 13q9 7 17 16t17 20q-42 11 -87 6.5l-45 -4.5v0z" />
<glyph unicode="&#xe60a;" d="M480 336l-112 112l32 32l112 -112zM448 304l-16 -176q-108 0 -230 -80l-122 -80l-27 27l137 136q4 -1 8.5 -2t9.5 -1q10 0 18.5 4t15.5 10q6 7 10 15.5t4 18.5t-4 18.5t-10 15.5q-7 6 -15.5 10t-18.5 4t-18.5 -4t-15.5 -10q-6 -7 -10 -15.5t-4 -18.5q0 -5 1 -9.5t2 -8.5 l-136 -137l-27 27l80 122t80 230l176 16l112 -112v0z" />
<glyph unicode="&#xe60b;" d="M192 384q46 0 87 -17.5t71 -48.5q31 -30 48.5 -71t17.5 -87h-48q0 18 -3.5 35t-9.5 32q-7 16 -16.5 30.5t-22.5 26.5q-12 13 -26.5 22.5t-30.5 16.5q-15 6 -32 9.5t-35 3.5v48v0zM192 480q66 0 124.5 -25t101.5 -69q44 -43 69 -101.5t25 -124.5h-48q0 14 -1.5 27.5 t-3.5 26.5q-3 13 -7 26t-9 26q-5 12 -11.5 23.5t-13.5 22.5q-8 11 -16 21t-18 19q-9 10 -19 18t-21 16q-11 7 -22.5 13.5t-23.5 11.5q-13 5 -26 9t-26 7q-13 2 -26.5 3.5t-27.5 1.5v48v0zM287 255q8 -8 14.5 -17.5t10.5 -19.5t6 -20.5t2 -21.5q-24 -36 -28 -74l-4 -38 q-96 0 -160 -48l-64 -48l-19 19l142 141h2.5h2.5q7 0 12.5 2.5t10.5 6.5q4 5 6.5 10.5t2.5 12.5t-2.5 12.5t-6.5 10.5q-5 4 -10.5 6.5t-12.5 2.5t-12.5 -2.5t-10.5 -6.5q-4 -5 -6.5 -10.5t-2.5 -12.5v-2.5v-2.5l-141 -142l-19 19l48 64t48 160l38 4t74 28q11 0 21.5 -2 t20.5 -6t19.5 -10.5t17.5 -14.5v0z" />
<glyph unicode="&#xe60c;" d="M448 163v0.5t0 -0.5v2v1q-4 118 -98 216t-94 97q0 1 -94 -97t-98 -216v-1v-2q0 1 0 0.5v-0.5v-2v-2v-1.5v-1.5q0 -1 0 -0.5t0 -0.5q1 -38 16.5 -73t41.5 -59q25 -27 60 -41t74 -15q39 1 74 15t60 41q26 24 41.5 59t16.5 73q0 1 0 0.5t0 0.5v1.5v1.5v2v2v0zM384 157v0 q0 -13 -3 -24.5t-7 -24.5q-5 -10 -12 -20.5t-16 -18.5q-9 -10 -19.5 -16.5t-22.5 -12.5q-11 -3 -23 -6t-25 -2q-5 -1 -9.5 0t-8.5 0q26 17 47 38t37 48q15 26 23.5 56.5t8.5 61.5q0 9 -0.5 15.5t-1.5 14.5q7 -15 13 -27.5t10 -26.5q4 -12 6.5 -24.5t2.5 -23.5v-1v0v0v-2v0 v-1v-2v-1v0z" />
<glyph unicode="&#xe60d;" d="M512 192v192h-96v32q0 7 -2.5 12.5t-6.5 10.5q-5 4 -10.5 6.5t-12.5 2.5h-352q-7 0 -12.5 -2.5t-10.5 -6.5q-4 -5 -6.5 -10.5t-2.5 -12.5v-96q0 -7 2.5 -12.5t6.5 -10.5q5 -4 10.5 -6.5t12.5 -2.5h352q7 0 12.5 2.5t10.5 6.5q4 5 6.5 10.5t2.5 12.5v32h64v-128h-288v-64 h-16q-7 0 -11.5 -4.5t-4.5 -11.5v-160q0 -7 4.5 -11.5t11.5 -4.5h64q7 0 11.5 4.5t4.5 11.5v160q0 7 -4.5 11.5t-11.5 4.5h-16v32h288v0zM384 384h-352v32h352v-32v0z" />
<glyph unicode="&#xe60e;" d="M448 384h-384v-320h384v320v0zM512 448v0v-448h-512v448h512v0zM416 96h-320v64l96 160l131 -160l93 64l-1 -32zM320 304q-1 10 3.5 18.5t9.5 15.5q8 6 16 10t19 4q9 0 18 -4t15 -10q7 -7 10.5 -15.5t4.5 -18.5q-1 -10 -4.5 -18.5t-10.5 -15.5q-6 -6 -15 -10t-18 -4 q-11 0 -19 4t-16 10q-5 7 -9.5 15.5t-3.5 18.5v0z" />
<glyph unicode="&#xe60f;" d="M0 416v-416h512v416h-512v0zM480 32h-448v352h448v-352v0zM352 304q0 10 4 18.5t10 15.5q7 6 15.5 10t18.5 4t18.5 -4t15.5 -10q6 -7 10 -15.5t4 -18.5t-4 -18.5t-10 -15.5q-7 -6 -15.5 -10t-18.5 -4t-18.5 4t-15.5 10q-6 7 -10 15.5t-4 18.5v0zM448 64h-384l96 256 l128 -160l64 48z" />
<glyph unicode="&#xe610;" d="M64 352v-320h448v320h-448v0zM480 85l-64 107l-73 -60l-55 92l-192 -160v256h384v-235v0zM128 240q0 10 4 18.5t10 15.5q7 6 15.5 10t18.5 4t18.5 -4t15.5 -10q6 -7 10 -15.5t4 -18.5t-4 -18.5t-10 -15.5q-7 -6 -15.5 -10t-18.5 -4t-18.5 4t-15.5 10q-6 7 -10 15.5 t-4 18.5v0zM448 416h-448v-320h32v288h416v32z" />
<glyph unicode="&#xe611;" d="M152 176q0 -22 8 -40.5t22 -33.5q15 -14 33.5 -22t40.5 -8t40.5 8t33.5 22q14 15 22 33.5t8 40.5t-8 40.5t-22 33.5q-15 14 -33.5 22t-40.5 8t-40.5 -8t-33.5 -22q-14 -15 -22 -33.5t-8 -40.5v0zM480 352h-112q-3 12 -6.5 23.5t-8.5 20.5t-13 14.5t-20 5.5h-128 q-12 0 -20 -5.5t-13 -14.5t-8.5 -20.5t-6.5 -23.5h-112q-7 0 -12.5 -2.5t-10.5 -6.5q-4 -5 -6.5 -10.5t-2.5 -12.5v-288q0 -7 2.5 -12.5t6.5 -10.5q5 -4 10.5 -6.5t12.5 -2.5h448q7 0 12.5 2.5t10.5 6.5q4 5 6.5 10.5t2.5 12.5v288q0 7 -2.5 12.5t-6.5 10.5q-5 4 -10.5 6.5 t-12.5 2.5v0zM256 34q-29 0 -55 11t-45 31q-20 19 -31 45t-11 55t11 55t31 45q19 20 45 31t55 11t55 -11t45 -31q20 -19 31 -45t11 -55t-11 -55t-31 -45q-19 -20 -45 -31t-55 -11v0zM480 256h-64v32h64v-32v0z" />
<glyph unicode="&#xe612;" d="M160 384l352 96v-368q0 -17 -9 -31.5t-24 -25.5q-15 -10 -35.5 -16.5t-43.5 -6.5t-43.5 6.5t-35.5 16.5q-15 11 -24 25.5t-9 31.5t9 31.5t24 25.5q15 10 35.5 16.5t43.5 6.5q6 0 12.5 -0.5t12.5 -1.5t12 -2.5t11 -3.5v165l-224 -61v-240q0 -17 -9 -31.5t-24 -25.5 q-15 -10 -35.5 -16.5t-43.5 -6.5t-43.5 6.5t-35.5 16.5q-15 11 -24 25.5t-9 31.5t9 31.5t24 25.5q15 10 35.5 16.5t43.5 6.5q6 0 12.5 -0.5t12.5 -1.5t12 -2.5t11 -3.5v264v0z" />
<glyph unicode="&#xe613;" d="M96 191v-222q4 0 8 -0.5t8 -0.5h16v224h-16q-4 0 -8 -0.5t-8 -0.5v0zM384 192v-224h16q4 0 8 0.5t8 0.5v222q-4 0 -8 0.5t-8 0.5h-16v0zM512 224q0 53 -20 99.5t-55 81.5t-81.5 55t-99.5 20t-99.5 -20t-81.5 -55t-55 -81.5t-20 -99.5q0 -12 1 -23t3 -22t5 -21.5t6 -20.5 q-3 -7 -6 -13.5t-5 -13.5t-3 -14.5t-1 -15.5q0 -17 4.5 -32.5t13.5 -28.5q8 -13 20 -23t26 -17v202q-4 -2 -7.5 -4t-6.5 -4q-4 -2 -7 -4.5t-6 -5.5q-2 5 -2.5 10.5t-1.5 11.5q0 6 -0.5 11.5t-0.5 11.5q0 46 17.5 87t48.5 71q30 31 71 48.5t87 17.5t87 -17.5t71 -48.5 q31 -30 48.5 -71t17.5 -87q0 -6 -0.5 -11.5t-0.5 -11.5q-1 -6 -1.5 -11.5t-2.5 -10.5q-3 3 -6 5.5t-7 4.5q-3 2 -6.5 4t-7.5 4v-202q14 7 26 17t20 23q9 13 13.5 28.5t4.5 32.5q0 8 -1 15.5t-3 14.5t-5 13.5t-6 13.5q3 10 6 20.5t5 21.5t3 22t1 23v0z" />
<glyph unicode="&#xe614;" d="M491 400q-27 4 -55.5 7t-57.5 5q-30 2 -60.5 3t-61.5 1t-61.5 -1t-60.5 -3q-29 -2 -57.5 -5t-55.5 -7q-5 -20 -9 -41.5t-6 -43.5q-3 -22 -4.5 -45t-1.5 -46t1.5 -46t4.5 -45q2 -22 6 -43.5t9 -41.5q27 -4 55.5 -7t57.5 -5q30 -2 60.5 -3t61.5 -1t61.5 1t60.5 3 q29 2 57.5 5t55.5 7q5 20 9 41.5t6 43.5q3 22 4.5 45t1.5 46t-1.5 46t-4.5 45q-2 22 -6 43.5t-9 41.5v0zM192 128v192l160 -96l-160 -96v0z" />
<glyph unicode="&#xe615;" d="M0 416v-384h512v384h-512v0zM96 64h-64v64h64v-64v0zM96 192h-64v64h64v-64v0zM96 320h-64v64h64v-64v0zM384 64h-256v320h256v-320v0zM480 64h-64v64h64v-64v0zM480 192h-64v64h64v-64v0zM480 320h-64v64h64v-64v0zM192 320v-192l128 96z" />
<glyph unicode="&#xe616;" d="M192 336q0 17 6.5 31.5t16.5 25.5q11 10 25.5 16.5t31.5 6.5t31.5 -6.5t25.5 -16.5q10 -11 16.5 -25.5t6.5 -31.5t-6.5 -31.5t-16.5 -25.5q-11 -10 -25.5 -16.5t-31.5 -6.5t-31.5 6.5t-25.5 16.5q-10 11 -16.5 25.5t-6.5 31.5v0zM0 336q0 17 6.5 31.5t16.5 25.5 q11 10 25.5 16.5t31.5 6.5t31.5 -6.5t25.5 -16.5q10 -11 16.5 -25.5t6.5 -31.5t-6.5 -31.5t-16.5 -25.5q-11 -10 -25.5 -16.5t-31.5 -6.5t-31.5 6.5t-25.5 16.5q-10 11 -16.5 25.5t-6.5 31.5v0zM384 176v48q0 7 -2.5 12.5t-6.5 10.5q-5 4 -10.5 6.5t-12.5 2.5h-320 q-7 0 -12.5 -2.5t-10.5 -6.5q-4 -5 -6.5 -10.5t-2.5 -12.5v-160q0 -7 2.5 -12.5t6.5 -10.5q5 -4 10.5 -6.5t12.5 -2.5h320q7 0 12.5 2.5t10.5 6.5q4 5 6.5 10.5t2.5 12.5v48l128 -80v224l-128 -80v0zM320 96h-256v96h256v-96v0z" />
<glyph unicode="&#xe617;" d="M432 384h-256q-16 0 -31 -6.5t-25 -16.5q-11 -11 -17.5 -25.5t-6.5 -31.5v-256q0 -16 6.5 -31t16.5 -25q11 -11 25 -17.5t32 -6.5h254q18 0 32 6.5t25 16.5q10 11 16.5 25t6.5 32v254q0 18 -6.5 32t-16.5 25q-11 10 -25.5 16.5t-31.5 6.5zM206 30q-10 0 -18.5 4t-15.5 10 q-6 7 -10 15.5t-4 18.5t4 18.5t10 15.5q7 6 15.5 10t18.5 4t18.5 -4t15.5 -10q6 -7 10 -15.5t4 -18.5t-4 -18.5t-10 -15.5q-7 -6 -15.5 -10t-18.5 -4v0zM206 222q-10 0 -18.5 4t-15.5 10q-6 7 -10 15.5t-4 18.5t4 18.5t10 15.5q7 6 15.5 10t18.5 4t18.5 -4t15.5 -10 q6 -7 10 -15.5t4 -18.5t-4 -18.5t-10 -15.5q-7 -6 -15.5 -10t-18.5 -4v0zM302 126q-10 0 -18.5 4t-15.5 10q-6 7 -10 15.5t-4 18.5t4 18.5t10 15.5q7 6 15.5 10t18.5 4t18.5 -4t15.5 -10q6 -7 10 -15.5t4 -18.5t-4 -18.5t-10 -15.5q-7 -6 -15.5 -10t-18.5 -4v0zM398 30 q-10 0 -18.5 4t-15.5 10q-6 7 -10 15.5t-4 18.5t4 18.5t10 15.5q7 6 15.5 10t18.5 4t18.5 -4t15.5 -10q6 -7 10 -15.5t4 -18.5t-4 -18.5t-10 -15.5q-7 -6 -15.5 -10t-18.5 -4v0zM398 222q-10 0 -18.5 4t-15.5 10q-6 7 -10 15.5t-4 18.5t4 18.5t10 15.5q7 6 15.5 10t18.5 4 t18.5 -4t15.5 -10q6 -7 10 -15.5t4 -18.5t-4 -18.5t-10 -15.5q-7 -6 -15.5 -10t-18.5 -4v0zM412 414q-2 14 -9.5 25.5t-17.5 20.5q-11 8 -24 13t-27 5h-256q-16 0 -31 -6.5t-25 -16.5q-11 -11 -17.5 -25.5t-6.5 -31.5v-256q0 -14 5 -27t13 -24q9 -10 20.5 -17.5t25.5 -9.5 v318q0 7 2.5 12.5t6.5 10.5q5 4 10.5 6.5t12.5 2.5h318v0z" />
<glyph unicode="&#xe618;" d="M482 391q-18 21 -39.5 37t-46.5 29q-24 10 -52 17t-56 6q-54 1 -100 -19.5t-82 -54.5q-34 -36 -54.5 -82t-19.5 -100q-1 -52 19.5 -99t54.5 -81q36 -36 82 -55.5t100 -20.5q28 1 56 7t52 18q25 11 46.5 28t39.5 36l-163 168l163 166v0zM351 421q8 -1 14 -3.5t12 -8.5 q4 -4 7.5 -11t2.5 -13q1 -8 -2.5 -14t-7.5 -12q-6 -4 -12 -7.5t-14 -2.5q-6 -1 -13 2.5t-11 7.5q-6 6 -8.5 12t-3.5 14q1 6 3.5 13t8.5 11q4 6 11 8.5t13 3.5v0z" />
<glyph unicode="&#xe61d;" d="M512 265q0 38 -5 71t-14 58t-21 39.5t-26 14.5h0.5h0.5h-42l-66 -40t-171 -62q-2 -8 -3.5 -17.5t-2.5 -19.5q0 -10 -0.5 -21t-0.5 -23q0 -11 0.5 -22t0.5 -21q1 -10 2.5 -19.5t3.5 -17.5q105 -22 171 -62l66 -40h42h-0.5h-0.5q14 0 26 14.5t21 39.5q9 24 14 57.5t5 70.5 v0zM432 110q-3 0 -6.5 3t-5.5 5q-5 5 -9.5 13.5t-8.5 18.5q-4 11 -7.5 24.5t-5.5 28.5q-2 14 -3.5 30t-1.5 32q0 17 1.5 32.5t3.5 30.5t5.5 28t7.5 25q4 10 8.5 18t9.5 14q2 2 5.5 4.5t6.5 2.5q4 0 7.5 -2.5t5.5 -4.5q5 -6 9 -14t8 -18q5 -12 8 -25t6 -28q2 -15 3 -30.5 t1 -32.5q0 -16 -1 -32t-3 -30q-3 -15 -6 -28.5t-8 -24.5q-4 -10 -8 -18.5t-9 -13.5q-2 -2 -5.5 -5t-7.5 -3v0zM126 265q0 10 0.5 19.5t0.5 19.5l2 18l2 18q-8 -1 -16.5 -2t-17.5 -2q-8 -1 -17 -1h-19h-29h-4l-28 -48v-44l28 -47h4h29q10 0 19 -0.5t17 -0.5q9 -1 17.5 -2 t16.5 -2l-2 18l-2 18q0 9 -0.5 19t-0.5 19v0zM184 159l-64 12l41 -161q2 -6 7 -8.5t11 -0.5l60 24q6 2 8 8t-1 11l-62 115v0zM432 206q-1 0 -2.5 1t-1.5 2q-2 2 -4 5t-3 7q-2 4 -3 9.5t-2 10.5q-1 6 -1.5 12t-0.5 12q0 7 0.5 13t1.5 12l2 10t3 10q1 4 3 7t4 5q0 1 1.5 2 t2.5 1q2 0 3 -1l2 -2q2 -2 3.5 -5l3.5 -7q2 -5 3 -10l2 -10q1 -6 1.5 -12t0.5 -13q0 -6 -0.5 -12t-1.5 -12q-1 -5 -2 -10.5t-3 -9.5l-3.5 -7t-3.5 -5l-2 -2t-3 -1v0z" />
<glyph unicode="&#xe61e;" horiz-adv-x="640" d="M320 192q20 0 38.5 -4t36.5 -11q17 -7 32.5 -17.5t28.5 -23.5l-46 -46q-8 9 -18.5 16t-21.5 12q-12 5 -24.5 7.5t-25.5 2.5t-25.5 -2.5t-24.5 -7.5q-11 -5 -21.5 -12t-18.5 -16l-46 46q13 13 28.5 23.5t32.5 17.5q18 7 36.5 11t38.5 4v0zM94 226q22 23 48.5 40.5 t54.5 29.5q29 12 60 18t63 6t63 -6t60 -18q28 -12 54.5 -29.5t48.5 -40.5l-45 -45q-18 18 -39 32t-44 24q-23 9 -47.5 14t-50.5 5t-50.5 -5t-47.5 -14q-23 -10 -44 -24t-39 -32l-45 45v0zM494 413q20 -9 39 -19t37 -22t34.5 -26t32.5 -29v0l-45 -45q-28 27 -59 48t-66 35 q-34 14 -71.5 21.5t-75.5 7.5t-75.5 -7.5t-71.5 -21.5q-35 -14 -66 -35t-59 -48l-45 45q16 15 32.5 29t34.5 26t37 22t39 19t41.5 15.5t43.5 10.5q22 5 44 7t45 2t45 -2t44 -7q22 -4 43.5 -10.5t41.5 -15.5v0zM288 32q0 7 2.5 12.5t6.5 10.5q5 4 10.5 6.5t12.5 2.5 t12.5 -2.5t10.5 -6.5q4 -5 6.5 -10.5t2.5 -12.5t-2.5 -12.5t-6.5 -10.5q-5 -4 -10.5 -6.5t-12.5 -2.5t-12.5 2.5t-10.5 6.5q-4 5 -6.5 10.5t-2.5 12.5v0z" />
<glyph unicode="&#xe61f;" d="M512 224q0 53 -20 99.5t-55 81.5t-81.5 55t-99.5 20t-99.5 -20t-81.5 -55t-55 -81.5t-20 -99.5q0 -41 12.5 -78.5t34.5 -69.5q22 -31 52.5 -54.5t67.5 -37.5l-7 -16h192l-7 16q37 14 67.5 37.5t52.5 54.5q22 32 34.5 69.5t12.5 78.5v0zM243 163q-4 1 -7.5 4t-6.5 7 q-2 4 -3.5 8.5t-1.5 9.5q0 7 2.5 12.5t6.5 10.5q5 4 10.5 6.5t12.5 2.5t12.5 -2.5t10.5 -6.5q4 -5 6.5 -10.5t2.5 -12.5q0 -5 -1.5 -9.5t-3.5 -8.5q-3 -4 -6.5 -7t-7.5 -4l-13 29l-13 -29v0zM269 161q11 3 20.5 8.5t15.5 13.5q7 9 11 19t4 22q0 13 -5 25t-14 20q-8 9 -20 14 t-25 5t-25 -5t-20 -14q-9 -8 -14 -20t-5 -25q0 -12 4 -22t11 -19q6 -8 15.5 -13.5t20.5 -8.5l-37 -87q-18 8 -32 19.5t-24 27.5q-11 15 -16.5 33t-5.5 38q0 27 10 51t27 43q18 18 41 29t50 11t50 -11t41 -29q17 -19 27 -43t10 -51q0 -20 -5.5 -38t-16.5 -33 q-10 -16 -24 -27.5t-32 -19.5l-37 87v0zM344 -14l-37 86q24 8 44 23t34 35q15 20 23 44t8 50q0 33 -12.5 62t-34.5 51t-51 34.5t-62 12.5t-62 -12.5t-51 -34.5t-34.5 -51t-12.5 -62q0 -26 8 -50t23 -44q14 -20 34 -35t44 -23l-37 -86q-30 13 -55 34t-43 47q-18 27 -28 58.5 t-10 66.5q0 46 17.5 88t48.5 73q30 32 71 50.5t87 18.5t87 -18.5t71 -50.5q31 -31 48.5 -73t17.5 -88q0 -35 -10 -66.5t-28 -58.5q-18 -26 -43 -47t-55 -34v0z" />
<glyph unicode="&#xe620;" d="M192 224q0 13 5 25t14 20q8 9 20 14t25 5t25 -5t20 -14q9 -8 14 -20t5 -25t-5 -25t-14 -20q-8 -9 -20 -14t-25 -5t-25 5t-20 14q-9 8 -14 20t-5 25v0zM332 365q19 -10 34.5 -25t26.5 -33t17 -39t6 -44t-6 -44t-17 -39t-26.5 -33t-34.5 -25q8 13 15 29t11 34 q5 18 7.5 37.5t2.5 40.5t-2.5 40.5t-7.5 37.5q-4 18 -11 34t-15 29v0zM144 224q0 -21 2.5 -40.5t7.5 -37.5q4 -18 11 -34t15 -29q-19 10 -34.5 25t-26.5 33t-17 39t-6 44t6 44t17 39t26.5 33t34.5 25q-8 -13 -15 -29t-11 -34q-5 -18 -7.5 -37.5t-2.5 -40.5v0zM48 224 q0 -32 5 -62.5t14 -57.5q9 -28 22 -52t29 -44q-26 17 -48 40t-38 51q-15 28 -23.5 59.5t-8.5 65.5t8.5 65.5t23.5 59.5q16 28 38 51t48 40q-16 -20 -29 -44t-22 -52q-9 -27 -14 -57.5t-5 -62.5v0zM394 440q26 -17 48 -40t38 -51q15 -28 23.5 -59.5t8.5 -65.5t-8.5 -65.5 t-23.5 -59.5q-16 -28 -38 -51t-48 -40q16 20 29 44t22 52q9 27 14 57.5t5 62.5t-5 62.5t-14 57.5q-9 28 -22 52t-29 44v0z" />
<glyph unicode="&#xe621;" d="M448 416v-416h-336q-10 0 -18.5 4t-15.5 10q-6 7 -10 15.5t-4 18.5t4 18.5t10 15.5q7 6 15.5 10t18.5 4h304v384h-320q-13 0 -24.5 -5t-20.5 -14q-9 -8 -14 -20t-5 -25v-384q0 -13 5 -24.5t14 -20.5t20.5 -14t24.5 -5h384v448h-32v0zM128 64h288v-32h-288v32z" />
<glyph unicode="&#xe622;" d="M288 335l121 41l102 -303l-121 -41zM0 32h128v352h-128v-352v0zM32 320h64v-32h-64v32v0zM160 32h128v352h-128v-352v0zM192 320h64v-32h-64v32v0z" />
<glyph unicode="&#xe623;" d="M256 480l-256 -160h512l-256 160v0zM400 288l16 -32v-192h64v192l16 32h-96v0zM272 288l16 -32v-192h64v192l16 32h-96v0zM144 288l16 -32v-192h64v192l16 32h-96v0zM16 288l16 -32v-192h64v192l16 32h-96v0zM16 32l-16 -64h512l-16 64h-480v0zM288 384q0 -7 -2.5 -12.5 t-6.5 -10.5q-5 -4 -10.5 -6.5t-12.5 -2.5t-12.5 2.5t-10.5 6.5q-4 5 -6.5 10.5t-2.5 12.5t2.5 12.5t6.5 10.5q5 4 10.5 6.5t12.5 2.5t12.5 -2.5t10.5 -6.5q4 -5 6.5 -10.5t2.5 -12.5v0z" />
<glyph unicode="&#xe624;" d="M432 480h-384q-10 0 -18.5 -4t-15.5 -10q-6 -7 -10 -15.5t-4 -18.5v-416q0 -10 4 -18.5t10 -15.5q7 -6 15.5 -10t18.5 -4h384q10 0 18.5 4t15.5 10q6 7 10 15.5t4 18.5v416q0 10 -4 18.5t-10 15.5q-7 6 -15.5 10t-18.5 4v0zM416 32h-352v384h352v-384v0zM128 256h224v-32 h-224v32zM128 192h224v-32h-224v32zM128 128h224v-32h-224v32zM128 320h224v-32h-224v32z" />
<glyph unicode="&#xe625;" d="M432 480h-384q-10 0 -18.5 -4t-15.5 -10q-6 -7 -10 -15.5t-4 -18.5v-416q0 -10 4 -18.5t10 -15.5q7 -6 15.5 -10t18.5 -4h384q10 0 18.5 4t15.5 10q6 7 10 15.5t4 18.5v416q0 10 -4 18.5t-10 15.5q-7 6 -15.5 10t-18.5 4v0zM416 32h-352v384h352v-384v0zM128 192h224v-32 h-224v32zM128 128h224v-32h-224v32zM160 336q0 10 4 18.5t10 15.5q7 6 15.5 10t18.5 4t18.5 -4t15.5 -10q6 -7 10 -15.5t4 -18.5t-4 -18.5t-10 -15.5q-7 -6 -15.5 -10t-18.5 -4t-18.5 4t-15.5 10q-6 7 -10 15.5t-4 18.5v0zM240 288h-64q-10 0 -18.5 -2.5t-15.5 -6.5 q-6 -5 -10 -10.5t-4 -12.5v-32h160v32q0 7 -4 12.5t-10 10.5q-7 4 -15.5 6.5t-18.5 2.5v0z" />
<glyph unicode="&#xe626;" d="M446 386l-60 60q-7 7 -17 13t-21 11t-22.5 7.5t-21.5 2.5h-224q-10 0 -18.5 -4t-15.5 -10q-6 -7 -10 -15.5t-4 -18.5v-416q0 -10 4 -18.5t10 -15.5q7 -6 15.5 -10t18.5 -4h352q10 0 18.5 4t15.5 10q6 7 10 15.5t4 18.5v288q0 10 -2.5 21.5t-7.5 22.5t-11 21t-13 17v0z M320 412q1 0 2 -0.5l1 -0.5q7 -3 11.5 -6t6.5 -4l60 -60q1 -2 4 -6.5t6 -11.5l0.5 -1t0.5 -2h-92v92v0zM416 32h-320v384h192v-128h128v-256v0z" />
<glyph unicode="&#xe627;" d="M446 386l-60 60q-7 7 -17 13t-21 11t-22.5 7.5t-21.5 2.5h-224q-10 0 -18.5 -4t-15.5 -10q-6 -7 -10 -15.5t-4 -18.5v-416q0 -10 4 -18.5t10 -15.5q7 -6 15.5 -10t18.5 -4h352q10 0 18.5 4t15.5 10q6 7 10 15.5t4 18.5v288q0 10 -2.5 21.5t-7.5 22.5t-11 21t-13 17v0z M320 412q1 0 2 -0.5l1 -0.5q7 -3 11.5 -6t6.5 -4l60 -60q1 -2 4 -6.5t6 -11.5l0.5 -1t0.5 -2h-92v92v0zM416 32h-320v384h192v-128h128v-256v0zM128 224h256v-32h-256v32zM128 160h256v-32h-256v32zM128 96h256v-32h-256v32z" />
<glyph unicode="&#xe628;" d="M452 380l-71 71q-7 7 -14.5 11.5t-17.5 9.5q-9 3 -19 5.5t-17 1.5l-241 1q-7 -1 -15 -3.5t-12 -9.5q-7 -4 -9.5 -12t-3.5 -15l1 -433q-1 -7 2.5 -15t8.5 -12q6 -7 13 -9.5t16 -3.5l367 1q9 -1 16 2.5t13 8.5q5 6 8.5 13t2.5 16l1 303q-1 9 -2.5 18t-6.5 20 q-3 8 -8.5 16.5t-10.5 13.5zM429 358q2 -3 3 -3.5t3 -3.5l-83 1l1 81q1 0 2.5 -2t2.5 -2l72 -72zM448 8q1 -4 -2 -6t-5 -3l-369 1q-2 -1 -5 2t-2 5l-1 433q1 2 3 5t6 2l239 1q3 -1 4.5 -0.5t4.5 -1.5l-1 -126l128 -1q0 -1 0.5 -3.5t-0.5 -3.5l1 -305z" />
<glyph unicode="&#xe629;" d="M416 352h-96v32l-96 96h-224v-384h192v-128h320v288l-96 96v0zM416 307l51 -51h-51v51v0zM224 435l51 -51h-51v51v0zM32 448h160v-96h96v-224h-256v320v0zM480 0h-256v96h96v224h64v-96h96v-224v0z" />
<glyph unicode="&#xe62a;" d="M432 416h-32v-32h16v-256h-128v-128h-192v384h16v32h-32q-7 0 -11.5 -4.5t-4.5 -11.5v-416q0 -7 4.5 -11.5t11.5 -4.5h252l116 116v316q0 7 -4.5 11.5t-11.5 4.5v0zM320 0v96h96l-96 -96v0zM384 416h-64v32q0 7 -2.5 12.5t-6.5 10.5q-5 4 -10.5 6.5t-12.5 2.5h-64 q-7 0 -12.5 -2.5t-10.5 -6.5q-4 -5 -6.5 -10.5t-2.5 -12.5v-32h-64v-64h256v64v0zM288 416h-64v32v0v0h64v0v0v-32v0z" />
<glyph unicode="&#xe62b;" d="M320 352v128h-224l-96 -96v-288h192v-128h320v384h-192v0zM96 435v-51h-51l51 51v0zM32 128v224h96v96h160v-96l-96 -96v-128h-160v0zM288 307v-51h-51l51 51v0zM480 0h-256v224h96v96h160v-320v0z" />
<glyph unicode="&#xe62c;" d="M352 416h-64v32q0 7 -2.5 12.5t-6.5 10.5q-5 4 -10.5 6.5t-12.5 2.5h-64q-7 0 -12.5 -2.5t-10.5 -6.5q-4 -5 -6.5 -10.5t-2.5 -12.5v-32h-64v-64h256v64v0zM256 416h-64v32v0v0h64v0v0v-32v0zM416 320v80q0 7 -4.5 11.5t-11.5 4.5h-32v-32h16v-64h-192v-224h-128v288h16 v32h-32q-7 0 -11.5 -4.5t-4.5 -11.5v-320q0 -7 4.5 -11.5t11.5 -4.5h144v-96h224l96 96v256h-96v0zM416 13v51h51l-51 -51v0zM480 96h-96v-96h-160v288h256v-192v0z" />
<glyph unicode="&#xe62d;" d="M416 320v80q0 7 -4.5 11.5t-11.5 4.5h-112v32q0 7 -2.5 12.5t-6.5 10.5q-5 4 -10.5 6.5t-12.5 2.5h-64q-7 0 -12.5 -2.5t-10.5 -6.5q-4 -5 -6.5 -10.5t-2.5 -12.5v-32h-112q-7 0 -11.5 -4.5t-4.5 -11.5v-320q0 -7 4.5 -11.5t11.5 -4.5h144v-96h224l96 96v256h-96v0z M192 448v0v0h64v0v0v-32h-64v32v0zM96 352v32h256v-32h-256v0zM416 13v51h51l-51 -51v0zM480 96h-96v-96h-160v288h256v-192v0z" />
<glyph unicode="&#xe62e;" d="M352 416h-64v32q0 7 -2.5 12.5t-6.5 10.5q-5 4 -10.5 6.5t-12.5 2.5h-64q-7 0 -12.5 -2.5t-10.5 -6.5q-4 -5 -6.5 -10.5t-2.5 -12.5v-32h-64v-64h256v64v0zM256 416h-64v32v0v0h64v0v0v-32v0zM416 320v80q0 7 -4.5 11.5t-11.5 4.5h-32v-32h16v-64h-96l-96 -96v-128h-128 v288h16v32h-32q-7 0 -11.5 -4.5t-4.5 -11.5v-320q0 -7 4.5 -11.5t11.5 -4.5h144v-96h320v352h-96v0zM288 275v-51h-51l51 51v0zM480 0h-256v192h96v96h160v-288v0z" />
<glyph unicode="&#xe62f;" d="M512 320l-256 128l-256 -128l256 -128l256 128v0zM256 406l171 -86l-171 -86l-171 86l171 86v0zM461 250l51 -26l-256 -128l-256 128l51 26l205 -103zM461 154l51 -26l-256 -128l-256 128l51 26l205 -103z" />
<glyph unicode="&#xe630;" d="M0 320h512l-32 -320h-448l-32 320v0zM464 384l16 -32h-448l32 64h176l16 -32h208v0z" />
<glyph unicode="&#xe631;" d="M416 0l96 256h-416l-96 -256h416zM64 288l-64 -288v416h144l64 -64h208v-64h-352z" />
<glyph unicode="&#xe632;" d="M464 480h-144q-10 0 -21.5 -2.5t-22.5 -7.5t-21 -11t-17 -13l-224 -224q-7 -7 -10.5 -15.5t-3.5 -18.5q0 -9 3.5 -18t10.5 -16l172 -172q7 -7 16 -10.5t18 -3.5q10 0 18.5 3.5t15.5 10.5l224 224q7 7 13 17t11 21t7.5 22.5t2.5 21.5v144q0 10 -4 18.5t-10 15.5 q-7 6 -15.5 10t-18.5 4v0zM400 320q-10 0 -18.5 4t-15.5 10q-6 7 -10 15.5t-4 18.5t4 18.5t10 15.5q7 6 15.5 10t18.5 4t18.5 -4t15.5 -10q6 -7 10 -15.5t4 -18.5t-4 -18.5t-10 -15.5q-7 -6 -15.5 -10t-18.5 -4v0z" />
<glyph unicode="&#xe633;" horiz-adv-x="544" d="M496 448h-112q-10 0 -21.5 -2.5t-22.5 -7.5t-21 -11t-17 -13l-188 -188q-7 -7 -10.5 -16t-3.5 -18t3.5 -18t10.5 -16l140 -140q7 -7 16 -10.5t18 -3.5t18 3.5t16 10.5l188 188q7 7 13 17t11 21t7.5 22.5t2.5 21.5v112q0 10 -4 18.5t-10 15.5q-7 6 -15.5 10t-18.5 4v0z M432 288q-10 0 -18.5 4t-15.5 10q-6 7 -10 15.5t-4 18.5t4 18.5t10 15.5q7 6 15.5 10t18.5 4t18.5 -4t15.5 -10q6 -7 10 -15.5t4 -18.5t-4 -18.5t-10 -15.5q-7 -6 -15.5 -10t-18.5 -4v0zM43 181l172 -172q-7 -3 -14.5 -4.5t-15.5 -0.5q-7 1 -14 4.5t-13 9.5l-140 140 q-7 7 -10.5 16t-3.5 18t3.5 18t10.5 16l188 188q7 7 17 13t21 11t22.5 7.5t21.5 2.5l-245 -245q-4 -4 -4 -11t4 -11v0z" />
<glyph unicode="&#xe634;" d="M0 416h64v-320h-64v320zM96 416h32v-320h-32v320zM160 416h32v-320h-32v320zM256 416h32v-320h-32v320zM384 416h32v-320h-32v320zM480 416h32v-320h-32v320zM320 416h16v-320h-16v320zM224 416h16v-320h-16v320zM432 416h16v-320h-16v320zM0 64h32v-32h-32v32zM96 64h32 v-32h-32v32zM160 64h32v-32h-32v32zM320 64h32v-32h-32v32zM480 64h32v-32h-32v32zM384 64h64v-32h-64v32zM224 64h64v-32h-64v32z" />
<glyph unicode="&#xe635;" d="M160 448h-128v-128h128v128v0zM192 480v0v-192h-192v192h192v0zM64 416h64v-64h-64v64zM480 448h-128v-128h128v128v0zM512 480v0v-192h-192v192h192v0zM384 416h64v-64h-64v64zM160 128h-128v-128h128v128v0zM192 160v0v-192h-192v192h192v0zM64 96h64v-64h-64v64z M224 480h32v-32h-32v32zM256 448h32v-32h-32v32zM224 416h32v-32h-32v32zM256 384h32v-32h-32v32zM224 352h32v-32h-32v32zM256 320h32v-32h-32v32zM224 288h32v-32h-32v32zM224 224h32v-32h-32v32zM256 192h32v-32h-32v32zM224 160h32v-32h-32v32zM256 128h32v-32h-32v32z M224 96h32v-32h-32v32zM256 64h32v-32h-32v32zM224 32h32v-32h-32v32zM256 0h32v-32h-32v32zM480 224h32v-32h-32v32zM32 224h32v-32h-32v32zM64 256h32v-32h-32v32zM0 256h32v-32h-32v32zM128 256h32v-32h-32v32zM160 224h32v-32h-32v32zM192 256h32v-32h-32v32zM288 224 h32v-32h-32v32zM320 256h32v-32h-32v32zM352 224h32v-32h-32v32zM384 256h32v-32h-32v32zM416 224h32v-32h-32v32zM448 256h32v-32h-32v32zM480 160h32v-32h-32v32zM288 160h32v-32h-32v32zM320 192h32v-32h-32v32zM352 160h32v-32h-32v32zM416 160h32v-32h-32v32zM448 192 h32v-32h-32v32zM480 96h32v-32h-32v32zM288 96h32v-32h-32v32zM320 128h32v-32h-32v32zM384 128h32v-32h-32v32zM416 96h32v-32h-32v32zM448 128h32v-32h-32v32zM480 32h32v-32h-32v32zM320 64h32v-32h-32v32zM352 32h32v-32h-32v32zM384 64h32v-32h-32v32zM416 32h32v-32 h-32v32zM320 0h32v-32h-32v32zM384 0h32v-32h-32v32zM448 0h32v-32h-32v32z" />
<glyph unicode="&#xe636;" d="M288 320l64 -64l-128 -128l-64 64zM501 331l-37 37l-16 -16q-3 -3 -6.5 -5.5t-7.5 -4.5q-4 -1 -8.5 -2t-9.5 -1q-9 0 -17.5 3.5t-14.5 9.5t-9.5 14.5t-3.5 17.5q0 5 1 9.5t2 8.5q2 4 4.5 7.5t5.5 6.5l16 16l-37 37q-5 5 -12.5 8t-14.5 3t-14.5 -3t-12.5 -8l-298 -298 q-5 -5 -8 -12.5t-3 -14.5t3 -14.5t8 -12.5l37 -37l16 16q3 3 6.5 5.5t7.5 4.5q4 1 8.5 2t9.5 1q9 0 17.5 -3.5t14.5 -9.5t9.5 -14.5t3.5 -17.5q0 -5 -1 -9.5t-2 -8.5q-2 -4 -4.5 -7.5t-5.5 -6.5l-16 -16l37 -37q5 -5 12.5 -8t14.5 -3t14.5 3t12.5 8l298 298q5 5 8 12.5 t3 14.5t-3 14.5t-8 12.5v0zM224 64l-128 128l192 192l128 -128l-192 -192v0z" />
<glyph unicode="&#xe637;" d="M64 16q0 10 4 18.5t10 15.5q7 6 15.5 10t18.5 4t18.5 -4t15.5 -10q6 -7 10 -15.5t4 -18.5t-4 -18.5t-10 -15.5q-7 -6 -15.5 -10t-18.5 -4t-18.5 4t-15.5 10q-6 7 -10 15.5t-4 18.5v0zM384 16q0 10 4 18.5t10 15.5q7 6 15.5 10t18.5 4t18.5 -4t15.5 -10q6 -7 10 -15.5 t4 -18.5t-4 -18.5t-10 -15.5q-7 -6 -15.5 -10t-18.5 -4t-18.5 4t-15.5 10q-6 7 -10 15.5t-4 18.5v0zM480 224v192h-416q0 13 -5 25t-14 20q-8 9 -20 14t-25 5v-32q7 0 12.5 -2.5t10.5 -6.5q4 -5 6.5 -10.5t2.5 -12.5l24 -206q-5 -4 -9.5 -9.5t-7.5 -12.5q-4 -6 -5.5 -13 t-1.5 -15q0 -13 5 -25t14 -20q8 -9 20 -14t25 -5h384v32h-384q-7 0 -12.5 2.5t-10.5 6.5q-4 5 -6.5 10.5t-2.5 12.5v0v0l416 64v0z" />
<glyph unicode="&#xe638;" d="M424 192q7 0 13 2.5t13 6.5q4 4 9 9.5t5 12.5l48 162q1 7 0.5 12.5t-4.5 9.5q-3 4 -8.5 6.5t-10.5 2.5h-329q1 13 -4.5 25t-13.5 20q-9 9 -20.5 14t-25.5 5h-95l-1 -64h97l-1 -272q1 -10 4.5 -18.5t10.5 -15.5q6 -6 15 -10t18 -4h305q6 0 12 2.5t10 6.5q5 5 7 10.5 t3 12.5q-1 7 -3 12.5t-7 10.5q-4 4 -10 6.5t-12 2.5h-289l1 32h263v0zM161 352h288l-26 -96h-263l1 96v0zM192 8q1 -8 -2.5 -15.5t-8.5 -12.5q-6 -6 -13 -9t-16 -3h-15q-9 0 -16 3t-13 9q-5 5 -8.5 12.5t-2.5 15.5l-1 16q1 8 3.5 15.5t9.5 12.5q4 6 12 9t15 3h17q7 0 15 -3 t12 -9q7 -5 9.5 -12.5t3.5 -15.5l-1 -16v0zM481 8q-1 -8 -3.5 -15.5t-9.5 -12.5q-4 -6 -12 -9t-15 -3h-17q-7 0 -15 3t-12 9q-7 5 -9.5 12.5t-3.5 15.5l1 16q-1 8 2.5 15.5t8.5 12.5q6 6 13 9t16 3h15q9 0 16 -3t13 -9q5 -5 8.5 -12.5t2.5 -15.5l1 -16v0z" />
<glyph unicode="&#xe639;" d="M489 383q-6 2 -12.5 1t-11.5 -4q-6 -3 -9.5 -8t-6.5 -11l-1 -9h-300l-3 36q-2 6 -4.5 11t-7.5 9q-3 4 -9 6t-11 2h-81q-6 0 -12 -2.5t-10 -6.5q-5 -5 -7 -10.5t-3 -12.5q1 -7 3 -12.5t7 -10.5q4 -4 10 -6.5t12 -2.5h53l27 -228q2 -6 4.5 -11t7.5 -9q3 -4 9 -6t11 -2h273 q4 0 9.5 1.5t8.5 4.5q5 4 7.5 8t5.5 9l63 224q3 7 1.5 13t-3.5 12q-4 5 -8.5 9t-11.5 6v0zM257 224l-1 32h65l-1 -32h-63v0zM320 192l1 -32h-65l1 32h63v0zM257 288l-1 32h65l-1 -32h-63v0zM152 320h73l-1 -32h-67l-5 32v0zM161 256h63l1 -32h-61l-3 32v0zM168 192h57 l-1 -32h-51l-5 32v0zM393 160h-41l1 32h48l-8 -32v0zM410 224h-57l-1 32h68l-10 -32v0zM429 288h-77l1 32h85l-9 -32v0zM128 16q1 10 4.5 18.5t10.5 15.5q6 6 15 10t18 4q11 0 19 -4t16 -10q5 -7 9.5 -15.5t3.5 -18.5q1 -10 -3.5 -18.5t-9.5 -15.5q-8 -6 -16 -10t-19 -4 q-9 0 -18 4t-15 10q-7 7 -10.5 15.5t-4.5 18.5v0zM321 16q-1 10 3.5 18.5t9.5 15.5q8 6 16 10t19 4q9 0 18 -4t15 -10q7 -7 10.5 -15.5t4.5 -18.5q-1 -10 -4.5 -18.5t-10.5 -15.5q-6 -6 -15 -10t-18 -4q-11 0 -19 4t-16 10q-5 7 -9.5 15.5t-3.5 18.5v0z" />
<glyph unicode="&#xe63a;" d="M240 448q-50 0 -93.5 -19t-76.5 -51q-32 -33 -51 -76.5t-19 -93.5t19 -93.5t51 -76.5q33 -32 76.5 -51t93.5 -19t93.5 19t76.5 51q32 33 51 76.5t19 93.5t-19 93.5t-51 76.5q-33 32 -76.5 51t-93.5 19v0zM240 16q-40 0 -75 15t-61 41t-41 61t-15 75t15 75t41 61t61 41 t75 15t75 -15t61 -41t41 -61t15 -75t-15 -75t-41 -61t-61 -41t-75 -15v0zM256 224v64h64v32h-64v32h-32v-32h-64v-128h64v-64h-64v-32h64v-32h32v32h64v128h-64v0zM224 224h-32v64h32v-64v0zM288 128h-32v64h32v-64v0z" />
<glyph unicode="&#xe63b;" d="M464 416h-416q-10 0 -18.5 -4t-15.5 -10q-6 -7 -10 -15.5t-4 -18.5v-288q0 -10 4 -18.5t10 -15.5q7 -6 15.5 -10t18.5 -4h416q10 0 18.5 4t15.5 10q6 7 10 15.5t4 18.5v288q0 10 -4 18.5t-10 15.5q-7 6 -15.5 10t-18.5 4v0zM48 384h416q7 0 11.5 -4.5t4.5 -11.5v-48h-448 v48q0 7 4.5 11.5t11.5 4.5v0zM464 64h-416q-7 0 -11.5 4.5t-4.5 11.5v144h448v-144q0 -7 -4.5 -11.5t-11.5 -4.5v0zM64 160h32v-64h-32v64zM128 160h32v-64h-32v64zM192 160h32v-64h-32v64z" />
<glyph unicode="&#xe63c;" d="M192 448h-160q-7 0 -12.5 -2.5t-10.5 -6.5q-4 -5 -6.5 -10.5t-2.5 -12.5v-160q0 -7 2.5 -12.5t6.5 -10.5q5 -4 10.5 -6.5t12.5 -2.5h160q7 0 12.5 2.5t10.5 6.5q4 5 6.5 10.5t2.5 12.5v160q0 7 -2.5 12.5t-6.5 10.5q-5 4 -10.5 6.5t-12.5 2.5v0zM192 320h-160v32h160v-32 v0zM448 448h-160q-7 0 -12.5 -2.5t-10.5 -6.5q-4 -5 -6.5 -10.5t-2.5 -12.5v-416q0 -7 2.5 -12.5t6.5 -10.5q5 -4 10.5 -6.5t12.5 -2.5h160q7 0 12.5 2.5t10.5 6.5q4 5 6.5 10.5t2.5 12.5v416q0 7 -2.5 12.5t-6.5 10.5q-5 4 -10.5 6.5t-12.5 2.5v0zM448 160h-160v32h160v-32 v0zM448 256h-160v32h160v-32v0zM192 192h-160q-7 0 -12.5 -2.5t-10.5 -6.5q-4 -5 -6.5 -10.5t-2.5 -12.5v-160q0 -7 2.5 -12.5t6.5 -10.5q5 -4 10.5 -6.5t12.5 -2.5h160q7 0 12.5 2.5t10.5 6.5q4 5 6.5 10.5t2.5 12.5v160q0 7 -2.5 12.5t-6.5 10.5q-5 4 -10.5 6.5t-12.5 2.5 v0zM192 64h-64v-64h-32v64h-64v32h64v64h32v-64h64v-32v0z" />
<glyph unicode="&#xe63d;" d="M256 480q-53 0 -99.5 -20t-81.5 -55t-55 -81.5t-20 -99.5t20 -99.5t55 -81.5t81.5 -55t99.5 -20t99.5 20t81.5 55t55 81.5t20 99.5t-20 99.5t-55 81.5t-81.5 55t-99.5 20v0zM160 224q0 20 7.5 37.5t20.5 30.5t30.5 20.5t37.5 7.5t37.5 -7.5t30.5 -20.5t20.5 -30.5 t7.5 -37.5t-7.5 -37.5t-20.5 -30.5t-30.5 -20.5t-37.5 -7.5t-37.5 7.5t-30.5 20.5t-20.5 30.5t-7.5 37.5v0zM463 138v0l-89 37q3 6 4.5 12t2.5 12q2 6 2.5 12t0.5 13t-0.5 13t-2.5 12q-1 6 -2.5 12t-4.5 12l89 37q4 -10 7 -20.5t6 -21.5q2 -10 3 -21.5t1 -22.5t-1 -22.5 t-3 -21.5q-3 -11 -6 -21.5t-7 -20.5v0v0zM342 431v0v0l-37 -89q-6 3 -12 4.5t-12 2.5q-6 2 -12 2.5t-13 0.5t-13 -0.5t-12 -2.5q-6 -1 -12 -2.5t-12 -4.5l-37 89q10 4 20.5 7t21.5 6q10 2 21.5 3t22.5 1t22.5 -1t21.5 -3q11 -3 21.5 -6t20.5 -7v0zM49 310l89 -37 q-3 -6 -4.5 -12t-2.5 -12q-2 -6 -2.5 -12t-0.5 -13t0.5 -13t2.5 -12q1 -6 2.5 -12t4.5 -12l-89 -37q-4 10 -7 20.5t-6 21.5q-2 10 -3 21.5t-1 22.5t1 22.5t3 21.5q3 11 6 21.5t7 20.5v0zM170 17l37 89q6 -3 12 -4.5t12 -2.5q6 -2 12 -2.5t13 -0.5t13 0.5t12 2.5q6 1 12 2.5 t12 4.5l37 -89q-10 -4 -20.5 -7t-21.5 -6q-10 -2 -21.5 -3t-22.5 -1t-22.5 1t-21.5 3q-11 3 -21.5 6t-20.5 7v0z" />
<glyph unicode="&#xe63e;" d="M352 160q-12 -12 -19 -23.5t-13 -20.5t-13 -14.5t-19 -5.5t-24 5.5t-24 14.5t-24 20.5t-24 23.5t-23.5 24t-20.5 24t-14.5 24t-5.5 24t5.5 19t14.5 13t20.5 13t23.5 19t3 33.5t-27 42.5t-39 36.5t-33 15.5q-24 0 -60 -48l-36 -48q0 -24 11 -58t30 -71q18 -36 41 -70 t46 -57t57 -46t70 -41q37 -19 71 -30t58 -11l48 36t48 60q0 12 -15.5 33t-36.5 39t-42.5 27t-33.5 -3v0z" />
<glyph unicode="&#xe63f;" d="M509 192q2 -10 2.5 -22t1.5 -23q-1 -11 -2.5 -20.5t-7.5 -14.5q-7 -9 -32 -13t-50 -2q-28 2 -48 11.5t-21 27.5q1 9 3.5 16.5t5.5 15.5q1 7 1 15t-9 17q-7 9 -18 13.5t-22 7.5q-14 2 -27.5 2.5t-29.5 0.5q-14 0 -28.5 -0.5t-26.5 -2.5q-13 -3 -23 -7.5t-19 -13.5 q-7 -9 -8 -17t2 -15q1 -8 4.5 -15.5t2.5 -16.5q1 -18 -20 -27.5t-47 -11.5q-27 -2 -51 2t-33 13q-4 5 -6.5 14.5t-1.5 20.5q-1 11 0.5 23t1.5 22q2 7 4 14.5t7 14.5q3 8 10 16.5t15 18.5q1 0 0.5 0t0.5 0q13 13 32 24.5t43 20.5q27 9 60.5 14t79.5 5h-1q2 0 1.5 0t1.5 0h0.5 h0.5h1q44 0 78.5 -5t59.5 -14q26 -9 44 -20.5t33 -24.5q-1 0 -0.5 0t-0.5 0q10 -10 16 -18.5t11 -16.5q3 -7 6 -14.5t3 -14.5v0z" />
<glyph unicode="&#xe640;" d="M480 352q7 0 12.5 2.5t10.5 6.5q4 5 6.5 10.5t2.5 12.5v64h-64v32h-416q-7 0 -12.5 -2.5t-10.5 -6.5q-4 -5 -6.5 -10.5t-2.5 -12.5v-448q0 -7 2.5 -12.5t6.5 -10.5q5 -4 10.5 -6.5t12.5 -2.5h416v128h32q7 0 12.5 2.5t10.5 6.5q4 5 6.5 10.5t2.5 12.5v64h-64v32h32 q7 0 12.5 2.5t10.5 6.5q4 5 6.5 10.5t2.5 12.5v64h-64v32h32v0zM288 352q13 0 24.5 -5t20.5 -14t14 -20.5t5 -24.5t-5 -24.5t-14 -20.5t-20.5 -14t-24.5 -5t-24.5 5t-20.5 14t-14 20.5t-5 24.5t5 24.5t14 20.5t20.5 14t24.5 5v0zM128 0h-32v448h32v-448v0zM384 96h-192v32 q0 13 5 25t14 20q8 9 20 14t25 5v0h64q13 0 25 -5t20 -14q9 -8 14 -20t5 -25v-32v0z" />
<glyph unicode="&#xe641;" d="M449 448h-385v-64h-47q-6 0 -11.5 -4t-5.5 -11v-32q0 -7 5.5 -12t11.5 -5h47v-32h-47q-6 0 -11.5 -4t-5.5 -11v-32q0 -7 5.5 -12t11.5 -5h47v-32h-47q-6 0 -11.5 -4t-5.5 -11v-32q0 -7 5.5 -12t11.5 -5h47v-32h-47q-6 0 -11.5 -4t-5.5 -11v-32q0 -7 5.5 -12t11.5 -5h47 v-64h385q7 0 12.5 2.5t9.5 7.5q4 4 6.5 10t2.5 13v416q0 7 -2.5 12.5t-6.5 9.5t-9.5 6.5t-12.5 2.5v0zM160 0h-64v32h17q7 0 11 5t4 12v32q0 7 -4 11t-11 4h-17v32h17q7 0 11 5t4 12v32q0 7 -4 11t-11 4h-17v32h17q7 0 11 5t4 12v32q0 7 -4 11t-11 4h-17v32h17q7 0 11 5 t4 12v32q0 7 -4 11t-11 4h-17v32h64v-416v0z" />
<glyph unicode="&#xe642;" d="M464 416h-416q-10 0 -18.5 -4t-15.5 -10q-6 -7 -10 -15.5t-4 -18.5v-320q0 -10 4 -18.5t10 -15.5q7 -6 15.5 -10t18.5 -4h416q10 0 18.5 4t15.5 10q6 7 10 15.5t4 18.5v320q0 10 -4 18.5t-10 15.5q-7 6 -15.5 10t-18.5 4v0zM199 205l-135 -106v251l135 -145v0zM88 352 h336l-168 -126l-168 126v0zM205 199l51 -55l51 55l106 -135h-314l106 135v0zM313 205l135 145v-251l-135 106v0z" />
<glyph unicode="&#xe643;" d="M272 480l-48 -48l48 -48l-112 -128h-112l88 -88l-136 -180v-20h20l180 136l88 -88v112l128 112l48 -48l48 48l-240 240v0zM224 208l-32 32l112 112l32 -32l-112 -112v0z" />
<glyph unicode="&#xe644;" d="M256 480q-33 0 -62 -12.5t-51 -34.5t-34.5 -51t-12.5 -62q0 -120 80 -236l80 -116l80 116t80 236q0 33 -12.5 62t-34.5 51t-51 34.5t-62 12.5v0zM256 224q-20 0 -37.5 7.5t-30.5 20.5t-20.5 30.5t-7.5 37.5t7.5 37.5t20.5 30.5t30.5 20.5t37.5 7.5t37.5 -7.5t30.5 -20.5 t20.5 -30.5t7.5 -37.5t-7.5 -37.5t-20.5 -30.5t-30.5 -20.5t-37.5 -7.5v0z" />
<glyph unicode="&#xe645;" d="M256 480q-33 0 -62 -12.5t-51 -34.5t-34.5 -51t-12.5 -62q0 -120 80 -236l80 -116l80 116t80 236q0 33 -12.5 62t-34.5 51t-51 34.5t-62 12.5v0zM256 222q-20 0 -38 7.5t-31 21.5q-14 13 -21.5 31t-7.5 38t7.5 38t21.5 31q13 14 31 21.5t38 7.5t38 -7.5t31 -21.5 q14 -13 21.5 -31t7.5 -38t-7.5 -38t-21.5 -31q-13 -14 -31 -21.5t-38 -7.5v0zM194 320q0 13 5 24t13 20q9 8 20 13t24 5t24 -5t20 -13q8 -9 13 -20t5 -24t-5 -24t-13 -20q-9 -8 -20 -13t-24 -5t-24 5t-20 13q-8 9 -13 20t-5 24v0z" />
<glyph unicode="&#xe646;" d="M256 480q-53 0 -99.5 -20t-81.5 -55t-55 -81.5t-20 -99.5t20 -99.5t55 -81.5t81.5 -55t99.5 -20t99.5 20t81.5 55t55 81.5t20 99.5t-20 99.5t-55 81.5t-81.5 55t-99.5 20v0zM256 16q-43 0 -81 16.5t-66 44.5t-44.5 66t-16.5 81t16.5 81t44.5 66t66 44.5t81 16.5t81 -16.5 t66 -44.5t44.5 -66t16.5 -81t-16.5 -81t-44.5 -66t-66 -44.5t-81 -16.5v0zM304 272l-144 80h-32v-32l80 -144l144 -80h32v32l-80 144v0zM256 192q-7 0 -12.5 2.5t-10.5 6.5q-4 5 -6.5 10.5t-2.5 12.5t2.5 12.5t6.5 10.5q5 4 10.5 6.5t12.5 2.5t12.5 -2.5t10.5 -6.5 q4 -5 6.5 -10.5t2.5 -12.5t-2.5 -12.5t-6.5 -10.5q-5 -4 -10.5 -6.5t-12.5 -2.5v0z" />
<glyph unicode="&#xe647;" d="M0 384l160 64v-384l-160 -64v384zM352 384v-384l-160 53v384zM512 448v-384l-128 -51v384z" />
<glyph unicode="&#xe648;" d="M336 384l-160 64l-176 -64v-384l176 64l160 -64l176 64v384l-176 -64v0zM192 407l128 -51v-315l-128 51v315v0zM32 362l128 46v-316l-128 -46v316v0zM480 86l-128 -46v316l128 46v-316v0z" />
<glyph unicode="&#xe649;" d="M288 448q46 0 87 -17.5t71 -48.5q31 -30 48.5 -71t17.5 -87t-17.5 -87t-48.5 -71q-30 -31 -71 -48.5t-87 -17.5v48q18 0 35 3.5t32 9.5q16 7 30.5 16.5t26.5 22.5q13 12 22.5 26.5t16.5 30.5q6 15 9.5 32t3.5 35t-3.5 35t-9.5 32q-7 16 -16.5 30.5t-22.5 26.5 q-12 13 -26.5 22.5t-30.5 16.5q-15 6 -32 9.5t-35 3.5t-35 -3.5t-32 -9.5q-16 -7 -30.5 -16.5t-26.5 -22.5q-10 -9 -18 -20t-14 -22q-6 -12 -10.5 -24.5t-6.5 -25.5h93l-112 -128l-112 128h82q6 41 25.5 76t49.5 61q29 26 67 40.5t80 14.5v0zM384 256v-64h-128v160h64v-96 h64z" />
<glyph unicode="&#xe64a;" d="M329 105l-105 105v142l64 -1v-114l87 -87zM256 480q-53 -1 -99.5 -20.5t-81.5 -55.5q-35 -34 -55 -81t-20 -99q0 -54 20 -100t55 -82q35 -34 81.5 -54.5t99.5 -19.5q53 -1 99.5 19.5t81.5 54.5q35 36 55 82t20 100q0 52 -20 99t-55 81q-35 36 -81.5 55.5t-99.5 20.5v0z M256 31q-40 1 -75 15.5t-61 41.5q-26 25 -41 60.5t-15 74.5q0 41 15 75.5t41 61.5q26 25 61 40.5t75 14.5q40 1 75 -14.5t61 -40.5q26 -27 41 -61.5t15 -75.5q0 -39 -15 -74.5t-41 -60.5q-26 -27 -61 -41.5t-75 -15.5v0z" />
<glyph unicode="&#xe64b;" d="M256 480q-53 0 -99.5 -20t-81.5 -55t-55 -81.5t-20 -99.5t20 -99.5t55 -81.5t81.5 -55t99.5 -20t99.5 20t81.5 55t55 81.5t20 99.5t-20 99.5t-55 81.5t-81.5 55t-99.5 20v0zM329 105l-105 106v141h64v-115l87 -86l-46 -46v0z" />
<glyph unicode="&#xe64c;" d="M288 205l55 -55l-46 -45l-73 73v110l64 -1v-82zM416 448q20 -1 37.5 -8t30.5 -21q13 -12 20.5 -30t7.5 -37q0 -13 -3 -24t-8 -22q-6 -9 -13.5 -18t-16.5 -15q-9 22 -22 43t-30 38q-18 18 -38.5 30.5t-43.5 22.5q7 8 15.5 16t18.5 13q10 6 21.5 8.5t23.5 3.5v0zM175 406 q-23 -8 -43.5 -21.5t-38.5 -29.5q-17 -19 -30 -39t-22 -44q-9 8 -16.5 16t-13.5 19q-5 9 -8 21t-3 23q0 21 7.5 38t20.5 31q13 12 30.5 20t37.5 7q12 1 23.5 -2.5t21.5 -7.5q10 -7 18.5 -14t15.5 -17v0zM256 384q-40 -1 -75 -15.5t-61 -41.5q-26 -25 -41 -60.5t-15 -74.5 q0 -18 3 -34.5t9 -32.5q5 -14 13 -29t19 -26l-12 -103l32 1l32 57q11 -5 22 -10.5t23 -7.5q13 -5 25.5 -6t25.5 -2q13 1 25.5 2t25.5 6q12 2 23 7.5t22 10.5v1l32 -59l32 1l-12 101q10 13 18.5 27t13.5 30q6 14 9 31.5t3 33.5q0 41 -15 75.5t-41 61.5q-26 25 -61 40.5 t-75 14.5v1zM256 64q-27 -1 -50 9.5t-41 26.5q-17 19 -27 41.5t-10 50.5q0 26 10 49.5t27 40.5q18 18 41 27.5t50 10.5q27 -1 50 -10.5t41 -27.5q17 -17 27 -40.5t10 -49.5q0 -28 -10 -50.5t-27 -41.5q-18 -16 -41 -26.5t-50 -9.5v0z" />
<glyph unicode="&#xe64d;" d="M256 416q-46 0 -87 -17.5t-71 -48.5q-31 -30 -48.5 -71t-17.5 -87t17.5 -87t48.5 -71q30 -31 71 -48.5t87 -17.5t87 17.5t71 48.5q31 30 48.5 71t17.5 87t-17.5 87t-48.5 71q-30 31 -71 48.5t-87 17.5v0zM256 12q-37 0 -70 14t-57 39q-25 24 -39 57t-14 70t14 70t39 57 q24 25 57 39t70 14t70 -14t57 -39q25 -24 39 -57t14 -70t-14 -70t-39 -57q-24 -25 -57 -39t-70 -14v0zM467 336q3 6 5.5 11.5t4.5 11.5q1 6 2 12.5t1 12.5q0 20 -7.5 37.5t-20.5 30.5t-30.5 20.5t-37.5 7.5q-12 0 -22.5 -2.5t-20.5 -7.5t-18 -12t-15 -15q25 -5 47.5 -15 t43.5 -23q20 -14 37.5 -31t30.5 -38v0zM204 443q-7 8 -15 15t-18 12t-20.5 7.5t-22.5 2.5q-20 0 -37.5 -7.5t-30.5 -20.5t-20.5 -30.5t-7.5 -37.5q0 -6 1 -12.5t2 -12.5q2 -6 4.5 -11.5t5.5 -11.5q13 21 30.5 38t37.5 31q21 13 43.5 23t47.5 15v0zM224 320h32v-160h-32v160 v0zM256 192h96v-32h-96v32v0z" />
<glyph unicode="&#xe64e;" d="M513 80q0 54 -20 80t-44 44t-44 38t-20 62q0 7 -1 13t-2 11q-3 21 -11.5 40t-20.5 34t-28 25.5t-35 16.5q1 1 1 2.5v3.5q0 6 -2.5 11.5t-6.5 9.5q-5 4 -10.5 6.5t-12.5 2.5t-12.5 -2.5t-10.5 -6.5q-4 -4 -6.5 -9.5t-2.5 -11.5v-3.5t1 -2.5q-21 -6 -38.5 -19t-30.5 -31 t-20.5 -40t-7.5 -47v-1.5v-1.5q0 -42 -20 -62t-44 -38t-44 -44t-20 -80q0 -14 15 -27t42 -23q27 -11 63.5 -18t78.5 -10q5 -8 10.5 -14t13.5 -11q7 -4 15.5 -6.5t17.5 -2.5t17.5 2.5t15.5 6.5q8 5 13.5 11t10.5 14q42 3 78.5 10t63.5 18q27 10 42 23t15 27v0v0h1v0zM413 53 q-10 -3 -21 -5t-23 -4t-24 -3.5t-25 -2.5q-1 12 -6.5 22.5t-14.5 18.5q-8 8 -19 12.5t-24 4.5t-24 -4.5t-19 -12.5q-9 -8 -14.5 -18.5t-6.5 -22.5q-13 1 -25 2.5t-24 3.5t-23 4t-21 5q-28 7 -42.5 15t-19.5 12q5 4 19.5 12t42.5 15q16 4 34.5 7.5t38.5 5.5q20 3 41 4t43 1 t43 -1t41 -4q20 -2 38.5 -5.5t34.5 -7.5q28 -7 42.5 -15t19.5 -12q-5 -4 -19.5 -12t-42.5 -15v0z" />
<glyph unicode="&#xe64f;" d="M256 383v33h64v32q0 7 -2.5 12.5t-6.5 10.5q-5 4 -10.5 6.5t-12.5 2.5h-96q-7 0 -12.5 -2.5t-10.5 -6.5q-4 -5 -6.5 -10.5t-2.5 -12.5v-32h64v-33q-40 -3 -75 -20t-61 -45t-41 -64.5t-15 -77.5q0 -43 16.5 -81t44.5 -66t66 -44.5t81 -16.5t81 16.5t66 44.5t44.5 66 t16.5 81q0 41 -15 77.5t-41 64.5t-61 45t-75 20v0zM353 63q-11 -11 -24 -20t-28 -15q-14 -6 -29.5 -9t-31.5 -3t-31.5 3t-29.5 9q-15 6 -28 15t-24 20t-20 24t-15 28q-6 14 -9 29.5t-3 31.5t3 31.5t9 29.5q6 15 15 28t20 24t23.5 19.5t25.5 14.5q14 6 29 9t30 4l-11 -157 q-1 -10 4 -14.5t12 -4.5t12 4.5t4 14.5l-11 157q15 -1 30 -4t29 -9q13 -6 25.5 -14.5t23.5 -19.5t20 -24t15 -28q6 -14 9 -29.5t3 -31.5t-3 -31.5t-9 -29.5q-6 -15 -15 -28t-20 -24v0z" />
<glyph unicode="&#xe650;" d="M160 288h64v-64h-64v64zM256 288h64v-64h-64v64zM352 288h64v-64h-64v64zM64 96h64v-64h-64v64zM160 96h64v-64h-64v64zM256 96h64v-64h-64v64zM160 192h64v-64h-64v64zM256 192h64v-64h-64v64zM352 192h64v-64h-64v64zM64 192h64v-64h-64v64zM416 480v-32h-64v32h-224 v-32h-64v32h-64v-512h480v512h-64v0zM448 0h-416v352h416v-352v0z" />
<glyph unicode="&#xe651;" d="M448 416h-48v-16q0 -7 -2.5 -12.5t-6.5 -10.5q-5 -4 -10.5 -6.5t-12.5 -2.5t-12.5 2.5t-10.5 6.5q-4 5 -6.5 10.5t-2.5 12.5v16h-160v-16q0 -7 -2.5 -12.5t-6.5 -10.5q-5 -4 -10.5 -6.5t-12.5 -2.5t-12.5 2.5t-10.5 6.5q-4 5 -6.5 10.5t-2.5 12.5v16h-48q-7 0 -12.5 -2.5 t-10.5 -6.5q-4 -5 -6.5 -10.5t-2.5 -12.5v-352q0 -7 2.5 -12.5t6.5 -10.5q5 -4 10.5 -6.5t12.5 -2.5h384q7 0 12.5 2.5t10.5 6.5q4 5 6.5 10.5t2.5 12.5v352q0 7 -2.5 12.5t-6.5 10.5q-5 4 -10.5 6.5t-12.5 2.5v0zM448 32v0v0h-384v0v0v288h384v-288v0zM144 384 q7 0 11.5 4.5t4.5 11.5v64q0 7 -4.5 11.5t-11.5 4.5t-11.5 -4.5t-4.5 -11.5v-64q0 -7 4.5 -11.5t11.5 -4.5v0zM368 384q7 0 11.5 4.5t4.5 11.5v64q0 7 -4.5 11.5t-11.5 4.5t-11.5 -4.5t-4.5 -11.5v-64q0 -7 4.5 -11.5t11.5 -4.5v0zM288 288h-160v-32h128v-64h-128v-32h128 v-64h-128v-32h160v224zM352 64h32v224h-64v-32h32v-192zM436 -12h-360q-7 0 -12.5 2t-10.5 5q-4 4 -6.5 9t-2.5 12v-16q0 -7 2.5 -12.5t6.5 -10.5q5 -4 10.5 -6.5t12.5 -2.5h360q7 0 12.5 2.5t10.5 6.5q4 5 6.5 10.5t2.5 12.5v16q0 -7 -2.5 -12t-6.5 -9q-5 -3 -10.5 -5 t-12.5 -2v0z" />
<glyph unicode="&#xe652;" d="M128 448h256v-64h-256v64zM480 352h-448q-7 0 -12.5 -2.5t-10.5 -6.5q-4 -5 -6.5 -10.5t-2.5 -12.5v-160q0 -7 2.5 -12.5t6.5 -10.5q5 -4 10.5 -6.5t12.5 -2.5h96v-128h256v128h96q7 0 12.5 2.5t10.5 6.5q4 5 6.5 10.5t2.5 12.5v160q0 7 -2.5 12.5t-6.5 10.5 q-5 4 -10.5 6.5t-12.5 2.5v0zM352 32h-192v160h192v-160v0zM487 304q0 -5 -1.5 -9t-5.5 -7q-3 -4 -7 -5.5t-9 -1.5t-9 1.5t-7 5.5q-4 3 -5.5 7t-1.5 9t1.5 9t5.5 7q3 4 7 5.5t9 1.5t9 -1.5t7 -5.5q4 -3 5.5 -7t1.5 -9v0z" />
<glyph unicode="&#xe653;" horiz-adv-x="576" d="M544 416h-512q-7 0 -12.5 -2.5t-10.5 -6.5q-4 -5 -6.5 -10.5t-2.5 -12.5v-320q0 -7 2.5 -12.5t6.5 -10.5q5 -4 10.5 -6.5t12.5 -2.5h512q7 0 12.5 2.5t10.5 6.5q4 5 6.5 10.5t2.5 12.5v320q0 7 -2.5 12.5t-6.5 10.5q-5 4 -10.5 6.5t-12.5 2.5v0zM320 352h64v-64h-64v64v0 zM416 256v-64h-64v64h64v0zM224 352h64v-64h-64v64v0zM320 256v-64h-64v64h64v0zM128 352h64v-64h-64v64v0zM224 256v-64h-64v64h64v0zM64 352h32v-64h-32v64v0zM64 256h64v-64h-64v64v0zM96 96h-32v64h32v-64v0zM384 96h-256v64h256v-64v0zM512 96h-96v64h96v-64v0z M512 192h-64v64h64v-64v0zM512 288h-96v64h96v-64v0z" />
<glyph unicode="&#xe654;" d="M512 64v384h-512v-384h224v-32h-96v-32h256v32h-96v32h224v0zM64 384h384v-256h-384v256v0z" />
<glyph unicode="&#xe655;" d="M448 128v256q0 7 -2.5 12.5t-6.5 10.5q-5 4 -10.5 6.5t-12.5 2.5h-320q-7 0 -12.5 -2.5t-10.5 -6.5q-4 -5 -6.5 -10.5t-2.5 -12.5v-256h-64v-96h512v96h-64v0zM320 64h-128v32h128v-32v0zM416 128h-320v256v0v0h320v0v0v-256v0z" />
<glyph unicode="&#xe656;" d="M368 480h-224q-10 0 -18.5 -4t-15.5 -10q-6 -7 -10 -15.5t-4 -18.5v-416q0 -10 4 -18.5t10 -15.5q7 -6 15.5 -10t18.5 -4h224q10 0 18.5 4t15.5 10q6 7 10 15.5t4 18.5v416q0 10 -4 18.5t-10 15.5q-7 6 -15.5 10t-18.5 4v0zM192 456h128v-16h-128v16v0zM256 0 q-7 0 -12.5 2.5t-10.5 6.5q-4 5 -6.5 10.5t-2.5 12.5t2.5 12.5t6.5 10.5q5 4 10.5 6.5t12.5 2.5t12.5 -2.5t10.5 -6.5q4 -5 6.5 -10.5t2.5 -12.5t-2.5 -12.5t-6.5 -10.5q-5 -4 -10.5 -6.5t-12.5 -2.5v0zM384 96h-256v320h256v-320v0z" />
<glyph unicode="&#xe657;" d="M384 480h-288q-7 0 -12.5 -2.5t-10.5 -6.5q-4 -5 -6.5 -10.5t-2.5 -12.5v-448q0 -7 2.5 -12.5t6.5 -10.5q5 -4 10.5 -6.5t12.5 -2.5h288q7 0 12.5 2.5t10.5 6.5q4 5 6.5 10.5t2.5 12.5v448q0 7 -2.5 12.5t-6.5 10.5q-5 4 -10.5 6.5t-12.5 2.5v0zM240 -9q-5 0 -9.5 2 t-8.5 5q-3 4 -5 8.5t-2 9.5t2 9.5t5 8.5q4 3 8.5 5t9.5 2t9.5 -2t8.5 -5q3 -4 5 -8.5t2 -9.5t-2 -9.5t-5 -8.5q-4 -3 -8.5 -5t-9.5 -2v0zM384 64h-288v352h288v-352v0z" />
<glyph unicode="&#xe658;" d="M400 480h-320q-10 0 -18.5 -4t-15.5 -10q-6 -7 -10 -15.5t-4 -18.5v-416q0 -10 4 -18.5t10 -15.5q7 -6 15.5 -10t18.5 -4h320q10 0 18.5 4t15.5 10q6 7 10 15.5t4 18.5v416q0 10 -4 18.5t-10 15.5q-7 6 -15.5 10t-18.5 4v0zM240 -16q-7 0 -11.5 4.5t-4.5 11.5t4.5 11.5 t11.5 4.5t11.5 -4.5t4.5 -11.5t-4.5 -11.5t-11.5 -4.5v0zM384 32h-288v384h288v-384v0z" />
<glyph unicode="&#xe659;" d="M491 336l-34 4t-35 4t-36 3.5t-36 2.5l82 82l-32 32l-112 -112h-16h-16v0l-128 128l-32 -32l97 -97q-23 -1 -45 -2.5t-43 -2.5q-22 -2 -43 -4.5t-41 -5.5q-5 -20 -9 -41.5t-6 -43.5q-3 -22 -4.5 -45t-1.5 -46t1.5 -46t4.5 -45q2 -22 6 -43.5t9 -41.5q27 -4 55.5 -7 t57.5 -5q30 -2 60.5 -3t61.5 -1t61.5 1t60.5 3q29 2 57.5 5t55.5 7q5 20 9 41.5t6 43.5q3 22 4.5 45t1.5 46t-1.5 46t-4.5 45q-2 22 -6 43.5t-9 41.5v0zM432 43q-20 -3 -41.5 -5t-43.5 -3q-22 -2 -45 -2.5t-46 -0.5t-46 0.5t-45 2.5q-22 1 -43.5 3t-41.5 5q-4 13 -7 27 t-5 29t-3 30t-1 31t1 31t3 30t5 29t7 27q20 3 41.5 5t43.5 3q22 2 45 2.5t46 0.5t46 -0.5t45 -2.5q22 -1 43.5 -3t41.5 -5q4 -13 7 -27t5 -29t3 -30t1 -31t-1 -31t-3 -30t-5 -29t-7 -27v0z" />
<glyph unicode="&#xe65a;" d="M352 480h-192l-96 -64v-128h384v128l-96 64v0zM320 320h-32v21q0 5 -3 8t-8 3h-42q-5 0 -8 -3t-3 -8v-21h-32v53q0 5 3 8t8 3h106q5 0 8 -3t3 -8v-53v0zM64 128h384v128h-384v-128v0zM192 213q0 5 3 8t8 3h106q5 0 8 -3t3 -8v-53h-32v21q0 5 -3 8t-8 3h-42q-5 0 -8 -3 t-3 -8v-21h-32v53v0zM64 -32h384v128h-384v-128v0zM192 53q0 5 3 8t8 3h106q5 0 8 -3t3 -8v-53h-32v21q0 5 -3 8t-8 3h-42q-5 0 -8 -3t-3 -8v-21h-32v53v0z" />
<glyph unicode="&#xe65b;" d="M352 384h-192l-160 -192v-128q0 -7 2.5 -12.5t6.5 -10.5q5 -4 10.5 -6.5t12.5 -2.5h448q7 0 12.5 2.5t10.5 6.5q4 5 6.5 10.5t2.5 12.5v128l-160 192v0zM384 192l-64 -64h-128l-64 64h-86l133 160h162l133 -160h-86v0z" />
<glyph unicode="&#xe65c;" d="M352 384h-192l-160 -192v-128q0 -7 2.5 -12.5t6.5 -10.5q5 -4 10.5 -6.5t12.5 -2.5h448q7 0 12.5 2.5t10.5 6.5q4 5 6.5 10.5t2.5 12.5v128l-160 192v0zM320 128h-128l-32 32h192l-32 -32v0zM42 192l133 160h162l133 -160h-428v0zM142 288h228l-27 32h-174zM89 224h334 l-27 32h-280z" />
<glyph unicode="&#xe65d;" d="M449 480l34 -286l-38 -4l-30 255h-318l-30 -255l-38 4l34 286h386zM128 416h256v-32h-256v32zM128 352h256v-32h-256v32zM128 288h256v-32h-256v32zM128 224h256v-32h-256v32zM496 160h-480q-7 0 -10 -4.5t-1 -10.5l54 -162q2 -6 8 -10.5t13 -4.5h352q7 0 13 4.5t8 10.5 l54 162q2 6 -1 10.5t-10 4.5v0zM320 96h-128v32h128v-32v0z" />
<glyph unicode="&#xe65e;" d="M416 448h-320l-96 -96v-336q0 -7 4.5 -11.5t11.5 -4.5h480q7 0 11.5 4.5t4.5 11.5v336l-96 96v0zM256 64l-160 128h96v96h128v-96h96l-160 -128v0zM77 384l32 32h294l32 -32h-358v0z" />
<glyph unicode="&#xe65f;" d="M416 448h-320l-96 -96v-336q0 -7 4.5 -11.5t11.5 -4.5h480q7 0 11.5 4.5t4.5 11.5v336l-96 96v0zM320 160v-96h-128v96h-96l160 128l160 -128h-96v0zM77 384l32 32h294l32 -32h-358v0z" />
<glyph unicode="&#xe660;" d="M256 192l128 128h-96v128h-64v-128h-96zM372 244l-36 -36l131 -48l-211 -79l-211 79l131 48l-36 36l-140 -52v-128l256 -96l256 96v128z" />
<glyph unicode="&#xe661;" d="M224 192h64v128h96l-128 128l-128 -128h96v-128zM320 264v-49l147 -55l-211 -79l-211 79l147 55v49l-192 -72v-128l256 -96l256 96v128z" />
<glyph unicode="&#xe662;" d="M448 480h-448v-512h512v448l-64 64v0zM256 416h64v-128h-64v128v0zM448 32h-384v384h32v-160h288v160h37l27 -27v-357v0z" />
<glyph unicode="&#xe663;" d="M96 32h320q20 0 37.5 7.5t30.5 20.5t20.5 30.5t7.5 37.5h-512q0 -20 7.5 -37.5t20.5 -30.5t30.5 -20.5t37.5 -7.5v0zM416 96h32v-32h-32v32v0zM480 416h-448l-32 -256h512z" />
<glyph unicode="&#xe664;" d="M256 448q-27 0 -52 -5t-48 -15t-43.5 -24t-37.5 -31l-75 75v-192h192l-72 72q13 13 28.5 23.5t32.5 17.5t36 11t39 4q40 0 75 -15t61 -41t41 -61t15 -75q0 -22 -4.5 -42t-13.5 -38q-8 -19 -20 -35t-27 -29l42 -48q20 18 36 39t28 46q11 24 17 51t6 56q0 53 -20 99.5 t-55 81.5t-81.5 55t-99.5 20v0z" />
<glyph unicode="&#xe665;" d="M0 192q0 -29 6 -56t17 -51q12 -25 28 -46t36 -39l42 48q-15 13 -27 29t-20 35q-9 18 -13.5 38t-4.5 42q0 40 15 75t41 61t61 41t75 15q20 0 39 -4t36 -11t32.5 -17.5t28.5 -23.5l-72 -72h192v192l-75 -75q-17 17 -37.5 31t-43.5 24t-48 15t-52 5q-53 0 -99.5 -20 t-81.5 -55t-55 -81.5t-20 -99.5v0z" />
<glyph unicode="&#xe666;" d="M0 288h512v192zM512 0v192h-512z" />
<glyph unicode="&#xe667;" d="M288 480v-512h192zM0 -32h192v512z" />
<glyph unicode="&#xe668;" d="M381 -32q21 39 30.5 84t-3.5 84q-14 39 -57 64t-127 23v-127l-192 192l192 192v-124q100 2 157 -36.5t74 -98.5q18 -59 -1.5 -127.5t-72.5 -125.5v0z" />
<glyph unicode="&#xe669;" d="M288 356v124l192 -192l-192 -192v127q-84 2 -127 -23t-57 -64q-13 -39 -3.5 -84t30.5 -84q-53 57 -72.5 125.5t-1.5 127.5q17 60 74 98.5t157 36.5v0z" />
<glyph unicode="&#xe66a;" d="M131 480q-21 -39 -30.5 -84t3.5 -84q14 -39 57 -64t127 -23v127l192 -192l-192 -192v124q-100 -2 -157 36.5t-74 98.5q-18 59 1.5 127.5t72.5 125.5v0z" />
<glyph unicode="&#xe66b;" d="M224 92v-124l-192 192l192 192v-127q84 -2 127 23t57 64q13 39 3.5 84t-30.5 84q53 -57 72.5 -125.5t1.5 -127.5q-17 -60 -74 -98.5t-157 -36.5v0z" />
<glyph unicode="&#xe66c;" d="M256 448q53 0 99.5 -16.5t81.5 -44.5t55 -66t20 -81t-20 -81t-55 -66t-81.5 -44.5t-99.5 -16.5h-10t-10 1q-5 0 -10 0.5t-10 1.5q-21 -21 -43 -34t-46 -20q-23 -7 -47 -9.5t-48 -3.5v14q13 6 24.5 14.5t20.5 19.5t14 23t5 25q0 4 -0.5 7.5t-0.5 6.5q-22 15 -39.5 32.5 t-29.5 38.5q-13 21 -19.5 44t-6.5 47q0 43 20 81t55 66t81.5 44.5t99.5 16.5v0z" />
<glyph unicode="&#xe66d;" horiz-adv-x="576" d="M544 29q0 -9 2.5 -16.5t6.5 -15.5q4 -5 10 -11t13 -9v-9q-4 1 -8 0t-8 0q-13 -1 -25 2t-23 7q-11 6 -20.5 12.5t-18.5 15.5q-5 -2 -10 -2.5t-10 -2.5q-5 1 -10.5 0t-10.5 0q-30 -1 -56 9.5t-46 26.5q-19 19 -30.5 41.5t-11.5 50.5q0 26 11.5 49.5t30.5 40.5 q20 18 46 27.5t56 10.5q30 -1 56 -10.5t46 -27.5q19 -17 30.5 -40.5t11.5 -49.5q0 -11 -2 -20.5t-5 -20.5q-3 -8 -8 -17t-12 -16q-2 -7 -3.5 -12.5t-1.5 -13.5v1zM256 480q52 -1 98 -16.5t81 -43.5q34 -27 55 -64.5t22 -78.5q-9 3 -19 7t-20 5q-10 3 -20 3.5t-21 1.5 q-18 -1 -35 -3.5t-34 -9.5q-16 -5 -30.5 -14.5t-27.5 -19.5q-13 -13 -23.5 -26t-17.5 -29q-7 -15 -10.5 -31.5t-3.5 -32.5q0 -9 1 -17t3 -17q1 -7 3.5 -15t6.5 -15q-2 -1 -4 -0.5t-4 -0.5q-5 1 -10 0.5t-10 1.5q-5 -1 -10 0t-10 1q-21 -20 -43 -33.5t-46 -19.5 q-23 -8 -47 -10l-48 -4v15q13 5 24.5 14t20.5 19q9 12 14 23.5t5 25.5q0 3 -0.5 7t-0.5 6q-22 16 -39.5 33t-29.5 39q-13 20 -19.5 43.5t-6.5 46.5q0 44 20 81.5t55 66.5q35 27 81.5 44t99.5 16v1z" />
<glyph unicode="&#xe66e;" horiz-adv-x="576" d="M240 480v0q50 0 93.5 -15.5t76.5 -41.5q32 -26 51 -61.5t19 -75.5t-19 -75.5t-51 -62.5q-33 -26 -76.5 -41t-93.5 -15h-9.5h-9.5t-9.5 0.5t-8.5 1.5q-20 -19 -40.5 -31t-42.5 -19q-21 -6 -43.5 -8.5t-44.5 -3.5v13q12 5 22.5 13.5t18.5 18.5t12.5 21t4.5 23q0 4 -0.5 7.5 t-0.5 6.5q-20 13 -36.5 30t-28.5 36q-11 19 -17.5 40.5t-6.5 44.5q0 40 19 75.5t51 61.5q33 26 76.5 41.5t93.5 15.5v0zM498 45q0 -11 3.5 -20.5t9.5 -18.5q6 -8 14.5 -15t18.5 -12v-11q-19 0 -37.5 2.5t-36.5 7.5q-18 6 -35.5 16.5t-34.5 26.5q-7 -1 -15.5 -1.5t-16.5 -0.5 q-18 0 -35 2.5t-33 6.5q-16 5 -31 11t-28 15q27 0 53.5 4t50.5 13q25 8 47 20t42 28q9 8 18 16.5t17 17.5q7 9 13.5 19t12.5 21t10 22t7 23t4.5 24t1.5 24v7.5t-1 7.5q14 -11 25 -24t18 -28q8 -15 12 -31t4 -32q0 -20 -5.5 -38.5t-15.5 -34.5q-10 -17 -24 -31t-32 -26 q-1 -3 -1 -5.5v-5.5v0z" />
<glyph unicode="&#xe66f;" d="M256 384q-10 0 -20.5 -1t-19.5 -2q-10 -2 -20 -4.5t-19 -5.5t-17 -6.5t-16 -7.5q-8 -5 -15 -9.5t-14 -10.5q-12 -10 -21.5 -21.5t-16.5 -23.5q-6 -12 -9.5 -25.5t-3.5 -26.5q0 -8 1 -15t3 -15q2 -7 5 -14t8 -14q4 -7 9.5 -14t11.5 -13t13 -12t15 -11q6 -4 10.5 -9 t8.5 -10q3 -6 5.5 -12t3.5 -13q1 -5 1.5 -9.5t0.5 -8.5q3 2 5.5 4.5l5.5 5.5q4 4 9.5 7.5t11.5 6.5q5 2 11.5 3.5t12.5 1.5q2 0 4 -0.5t4 -0.5q8 -1 16 -1.5t16 -0.5q10 0 20.5 1t19.5 2q10 2 20 4.5t19 5.5t17 6.5t16 7.5q8 5 15 9.5t14 10.5q12 10 21.5 21.5t16.5 23.5 q6 12 9.5 25.5t3.5 26.5t-3.5 26.5t-9.5 25.5q-7 12 -16.5 23.5t-21.5 21.5q-7 6 -14 10.5t-15 9.5q-8 4 -16 7.5t-17 6.5t-19 5.5t-20 4.5q-9 1 -19.5 2t-20.5 1v0zM256 448v0q53 0 99.5 -16.5t81.5 -44.5t55 -66t20 -81t-20 -81t-55 -66t-81.5 -44.5t-99.5 -16.5h-10 t-10 1q-5 0 -10 0.5t-10 1.5q-21 -21 -43 -34t-46 -20q-23 -7 -47 -9.5t-48 -3.5v14q13 6 24.5 14.5t20.5 19.5t14 23t5 25q0 4 -0.5 7.5t-0.5 6.5q-22 15 -39.5 32.5t-29.5 38.5q-13 21 -19.5 44t-6.5 47q0 43 20 81t55 66t81.5 44.5t99.5 16.5v0z" />
</font>
</defs>
</svg>
